<svg xmlns="http://www.w3.org/2000/svg" xmlns:xlink="http://www.w3.org/1999/xlink" width="800" height="686.4000000000001"><rect width="800" height="686.4000000000001" rx="0" ry="0" class="a"></rect><svg height="686.4000000000001" viewBox="0 0 80 68.64000000000001" width="800" xmlns="http://www.w3.org/2000/svg" xmlns:xlink="http://www.w3.org/1999/xlink"><style>.a{fill:rgb(40,45,53)}.b{font-family:'Fira Code',Monaco,Consolas,Menlo,'Bitstream Vera Sans Mono','Powerline Symbols',monospace}.c{fill:rgb(185,192,203);white-space:pre}.d{fill:transparent}.f{animation-duration:11.8831381797791s;animation-iteration-count:infinite;animation-name:e;animation-timing-function:steps(1,end)}@keyframes e{0%{transform:translateX(-0px)}0%{transform:translateX(-80px)}4.2%{transform:translateX(-160px)}4.6%{transform:translateX(-240px)}5.1%{transform:translateX(-320px)}5.7%{transform:translateX(-400px)}6%{transform:translateX(-480px)}6.2%{transform:translateX(-560px)}6.6%{transform:translateX(-640px)}7%{transform:translateX(-720px)}7.5%{transform:translateX(-800px)}8%{transform:translateX(-880px)}8.4%{transform:translateX(-960px)}8.9%{transform:translateX(-1040px)}9.4%{transform:translateX(-1120px)}9.8%{transform:translateX(-1200px)}10.1%{transform:translateX(-1280px)}10.7%{transform:translateX(-1360px)}11.1%{transform:translateX(-1440px)}11.6%{transform:translateX(-1520px)}12%{transform:translateX(-1600px)}12.6%{transform:translateX(-1680px)}13%{transform:translateX(-1760px)}13.3%{transform:translateX(-1840px)}13.8%{transform:translateX(-1920px)}14.2%{transform:translateX(-2000px)}14.5%{transform:translateX(-2080px)}14.7%{transform:translateX(-2160px)}15.2%{transform:translateX(-2240px)}15.9%{transform:translateX(-2320px)}16.5%{transform:translateX(-2400px)}17%{transform:translateX(-2480px)}17.6%{transform:translateX(-2560px)}18.2%{transform:translateX(-2640px)}18.7%{transform:translateX(-2720px)}19.3%{transform:translateX(-2800px)}19.7%{transform:translateX(-2880px)}19.7%{transform:translateX(-2960px)}20.1%{transform:translateX(-3040px)}20.6%{transform:translateX(-3120px)}21.1%{transform:translateX(-3200px)}21.5%{transform:translateX(-3280px)}22%{transform:translateX(-3360px)}22.3%{transform:translateX(-3440px)}22.9%{transform:translateX(-3520px)}23.6%{transform:translateX(-3600px)}24%{transform:translateX(-3680px)}24.5%{transform:translateX(-3760px)}24.8%{transform:translateX(-3840px)}25.3%{transform:translateX(-3920px)}25.9%{transform:translateX(-4000px)}26.4%{transform:translateX(-4080px)}26.7%{transform:translateX(-4160px)}27%{transform:translateX(-4240px)}27.5%{transform:translateX(-4320px)}28%{transform:translateX(-4400px)}28.4%{transform:translateX(-4480px)}28.7%{transform:translateX(-4560px)}29%{transform:translateX(-4640px)}29.3%{transform:translateX(-4720px)}29.3%{transform:translateX(-4800px)}29.6%{transform:translateX(-4880px)}29.6%{transform:translateX(-4960px)}38.2%{transform:translateX(-5040px)}38.7%{transform:translateX(-5120px)}39.1%{transform:translateX(-5200px)}39.5%{transform:translateX(-5280px)}40%{transform:translateX(-5360px)}40.3%{transform:translateX(-5440px)}40.8%{transform:translateX(-5520px)}41.3%{transform:translateX(-5600px)}41.8%{transform:translateX(-5680px)}42.2%{transform:translateX(-5760px)}42.8%{transform:translateX(-5840px)}43.2%{transform:translateX(-5920px)}43.5%{transform:translateX(-6000px)}44.1%{transform:translateX(-6080px)}44.4%{transform:translateX(-6160px)}44.8%{transform:translateX(-6240px)}45.3%{transform:translateX(-6320px)}45.9%{transform:translateX(-6400px)}46.5%{transform:translateX(-6480px)}47.1%{transform:translateX(-6560px)}47.6%{transform:translateX(-6640px)}48%{transform:translateX(-6720px)}48.6%{transform:translateX(-6800px)}49.2%{transform:translateX(-6880px)}49.7%{transform:translateX(-6960px)}49.7%{transform:translateX(-7040px)}50.1%{transform:translateX(-7120px)}50.7%{transform:translateX(-7200px)}51.1%{transform:translateX(-7280px)}51.7%{transform:translateX(-7360px)}52.3%{transform:translateX(-7440px)}52.7%{transform:translateX(-7520px)}53%{transform:translateX(-7600px)}53.4%{transform:translateX(-7680px)}54%{transform:translateX(-7760px)}54.4%{transform:translateX(-7840px)}54.6%{transform:translateX(-7920px)}55.1%{transform:translateX(-8000px)}55.5%{transform:translateX(-8080px)}56.1%{transform:translateX(-8160px)}56.5%{transform:translateX(-8240px)}56.9%{transform:translateX(-8320px)}57.4%{transform:translateX(-8400px)}57.4%{transform:translateX(-8480px)}100%{transform:translateX(-8560px)}}</style><g font-family="&#x27;Fira Code&#x27;,Monaco,Consolas,Menlo,&#x27;Bitstream Vera Sans Mono&#x27;,&#x27;Powerline Symbols&#x27;,monospace" font-size="2.2" class="b"><defs><symbol id="1"><text x="0" y="2.2" class="c">&gt;</text></symbol><symbol id="2"><text x="0" y="2.2" class="c">&gt;</text><text x="2.64" y="2.2" class="c">#</text></symbol><symbol id="3"><text x="0" y="2.2" class="c">&gt;</text><text x="2.64" y="2.2" class="c">#</text><text x="5.28" y="2.2" class="c">get</text></symbol><symbol id="4"><text x="0" y="2.2" class="c">&gt;</text><text x="2.64" y="2.2" class="c">#</text><text x="5.28" y="2.2" class="c">get</text><text x="10.56" y="2.2" class="c">mean</text></symbol><symbol id="5"><text x="0" y="2.2" class="c">&gt;</text><text x="2.64" y="2.2" class="c">#</text><text x="5.28" y="2.2" class="c">get</text><text x="10.56" y="2.2" class="c">mean</text><text x="17.16" y="2.2" class="c">sepal</text></symbol><symbol id="6"><text x="0" y="2.2" class="c">&gt;</text><text x="2.64" y="2.2" class="c">#</text><text x="5.28" y="2.2" class="c">get</text><text x="10.56" y="2.2" class="c">mean</text><text x="17.16" y="2.2" class="c">sepal</text><text x="25.080000000000002" y="2.2" class="c">length</text></symbol><symbol id="7"><text x="0" y="2.2" class="c">&gt;</text><text x="2.64" y="2.2" class="c">#</text><text x="5.28" y="2.2" class="c">get</text><text x="10.56" y="2.2" class="c">mean</text><text x="17.16" y="2.2" class="c">sepal</text><text x="25.080000000000002" y="2.2" class="c">length</text><text x="34.32" y="2.2" class="c">by</text></symbol><symbol id="8"><text x="0" y="2.2" class="c">&gt;</text><text x="2.64" y="2.2" class="c">#</text><text x="5.28" y="2.2" class="c">get</text><text x="10.56" y="2.2" class="c">mean</text><text x="17.16" y="2.2" class="c">sepal</text><text x="25.080000000000002" y="2.2" class="c">length</text><text x="34.32" y="2.2" class="c">by</text><text x="38.28" y="2.2" class="c">species</text></symbol><symbol id="9"><text x="0" y="2.2" class="c">&gt;</text><text x="2.64" y="2.2" class="c">x</text></symbol><symbol id="10"><text x="0" y="2.2" class="c">&gt;</text><text x="2.64" y="2.2" class="c">x</text><text x="5.28" y="2.2" class="c">&lt;-</text></symbol><symbol id="11"><text x="0" y="2.2" class="c">&gt;</text><text x="2.64" y="2.2" class="c">x</text><text x="5.28" y="2.2" class="c">&lt;-</text><text x="9.24" y="2.2" class="c">summarize_iris()</text></symbol><symbol id="12"><text x="0" y="2.2" class="c">&gt;</text><text x="2.64" y="2.2" class="c">#</text><text x="5.28" y="2.2" class="c">plot</text></symbol><symbol id="13"><text x="0" y="2.2" class="c">&gt;</text><text x="2.64" y="2.2" class="c">#</text><text x="5.28" y="2.2" class="c">plot</text><text x="11.88" y="2.2" class="c">mean</text></symbol><symbol id="14"><text x="0" y="2.2" class="c">&gt;</text><text x="2.64" y="2.2" class="c">#</text><text x="5.28" y="2.2" class="c">plot</text><text x="11.88" y="2.2" class="c">mean</text><text x="18.48" y="2.2" class="c">sepal</text></symbol><symbol id="15"><text x="0" y="2.2" class="c">&gt;</text><text x="2.64" y="2.2" class="c">#</text><text x="5.28" y="2.2" class="c">plot</text><text x="11.88" y="2.2" class="c">mean</text><text x="18.48" y="2.2" class="c">sepal</text><text x="26.4" y="2.2" class="c">length</text></symbol><symbol id="16"><text x="0" y="2.2" class="c">&gt;</text><text x="2.64" y="2.2" class="c">p</text></symbol><symbol id="17"><text x="0" y="2.2" class="c">&gt;</text><text x="2.64" y="2.2" class="c">p</text><text x="5.28" y="2.2" class="c">&lt;-</text></symbol><symbol id="18"><text x="0" y="2.2" class="c">&gt;</text><text x="2.64" y="2.2" class="c">p</text><text x="5.28" y="2.2" class="c">&lt;-</text><text x="9.24" y="2.2" class="c">plot_iris()</text></symbol><symbol id="a"><rect height="25" width="80" x="0" y="0" class="d"></rect></symbol></defs><rect height="68.64000000000001" width="80" class="a"></rect><g class="f"><svg x="0" y="0" width="8640"><svg x="0"><use xlink:href="#a"></use></svg><svg x="80"><use xlink:href="#a"></use><use xlink:href="#1" y="0"></use></svg><svg x="160"><use xlink:href="#a"></use><use xlink:href="#2" y="0"></use></svg><svg x="240"><use xlink:href="#a"></use><use xlink:href="#2" y="0"></use></svg><svg x="320"><use xlink:href="#a"></use><text x="0" y="2.2" class="c">&gt;</text><text x="2.64" y="2.2" class="c">#</text><text x="5.28" y="2.2" class="c">g</text></svg><svg x="400"><use xlink:href="#a"></use><text x="0" y="2.2" class="c">&gt;</text><text x="2.64" y="2.2" class="c">#</text><text x="5.28" y="2.2" class="c">ge</text></svg><svg x="480"><use xlink:href="#a"></use><use xlink:href="#3" y="0"></use></svg><svg x="560"><use xlink:href="#a"></use><use xlink:href="#3" y="0"></use></svg><svg x="640"><use xlink:href="#a"></use><text x="0" y="2.2" class="c">&gt;</text><text x="2.64" y="2.2" class="c">#</text><text x="5.28" y="2.2" class="c">get</text><text x="10.56" y="2.2" class="c">m</text></svg><svg x="720"><use xlink:href="#a"></use><text x="0" y="2.2" class="c">&gt;</text><text x="2.64" y="2.2" class="c">#</text><text x="5.28" y="2.2" class="c">get</text><text x="10.56" y="2.2" class="c">me</text></svg><svg x="800"><use xlink:href="#a"></use><text x="0" y="2.2" class="c">&gt;</text><text x="2.64" y="2.2" class="c">#</text><text x="5.28" y="2.2" class="c">get</text><text x="10.56" y="2.2" class="c">mea</text></svg><svg x="880"><use xlink:href="#a"></use><use xlink:href="#4" y="0"></use></svg><svg x="960"><use xlink:href="#a"></use><use xlink:href="#4" y="0"></use></svg><svg x="1040"><use xlink:href="#a"></use><text x="0" y="2.2" class="c">&gt;</text><text x="2.64" y="2.2" class="c">#</text><text x="5.28" y="2.2" class="c">get</text><text x="10.56" y="2.2" class="c">mean</text><text x="17.16" y="2.2" class="c">s</text></svg><svg x="1120"><use xlink:href="#a"></use><text x="0" y="2.2" class="c">&gt;</text><text x="2.64" y="2.2" class="c">#</text><text x="5.28" y="2.2" class="c">get</text><text x="10.56" y="2.2" class="c">mean</text><text x="17.16" y="2.2" class="c">se</text></svg><svg x="1200"><use xlink:href="#a"></use><text x="0" y="2.2" class="c">&gt;</text><text x="2.64" y="2.2" class="c">#</text><text x="5.28" y="2.2" class="c">get</text><text x="10.56" y="2.2" class="c">mean</text><text x="17.16" y="2.2" class="c">sep</text></svg><svg x="1280"><use xlink:href="#a"></use><text x="0" y="2.2" class="c">&gt;</text><text x="2.64" y="2.2" class="c">#</text><text x="5.28" y="2.2" class="c">get</text><text x="10.56" y="2.2" class="c">mean</text><text x="17.16" y="2.2" class="c">sepa</text></svg><svg x="1360"><use xlink:href="#a"></use><use xlink:href="#5" y="0"></use></svg><svg x="1440"><use xlink:href="#a"></use><use xlink:href="#5" y="0"></use></svg><svg x="1520"><use xlink:href="#a"></use><text x="0" y="2.2" class="c">&gt;</text><text x="2.64" y="2.2" class="c">#</text><text x="5.28" y="2.2" class="c">get</text><text x="10.56" y="2.2" class="c">mean</text><text x="17.16" y="2.2" class="c">sepal</text><text x="25.080000000000002" y="2.2" class="c">l</text></svg><svg x="1600"><use xlink:href="#a"></use><text x="0" y="2.2" class="c">&gt;</text><text x="2.64" y="2.2" class="c">#</text><text x="5.28" y="2.2" class="c">get</text><text x="10.56" y="2.2" class="c">mean</text><text x="17.16" y="2.2" class="c">sepal</text><text x="25.080000000000002" y="2.2" class="c">le</text></svg><svg x="1680"><use xlink:href="#a"></use><text x="0" y="2.2" class="c">&gt;</text><text x="2.64" y="2.2" class="c">#</text><text x="5.28" y="2.2" class="c">get</text><text x="10.56" y="2.2" class="c">mean</text><text x="17.16" y="2.2" class="c">sepal</text><text x="25.080000000000002" y="2.2" class="c">len</text></svg><svg x="1760"><use xlink:href="#a"></use><text x="0" y="2.2" class="c">&gt;</text><text x="2.64" y="2.2" class="c">#</text><text x="5.28" y="2.2" class="c">get</text><text x="10.56" y="2.2" class="c">mean</text><text x="17.16" y="2.2" class="c">sepal</text><text x="25.080000000000002" y="2.2" class="c">leng</text></svg><svg x="1840"><use xlink:href="#a"></use><text x="0" y="2.2" class="c">&gt;</text><text x="2.64" y="2.2" class="c">#</text><text x="5.28" y="2.2" class="c">get</text><text x="10.56" y="2.2" class="c">mean</text><text x="17.16" y="2.2" class="c">sepal</text><text x="25.080000000000002" y="2.2" class="c">lengt</text></svg><svg x="1920"><use xlink:href="#a"></use><use xlink:href="#6" y="0"></use></svg><svg x="2000"><use xlink:href="#a"></use><use xlink:href="#6" y="0"></use></svg><svg x="2080"><use xlink:href="#a"></use><text x="0" y="2.2" class="c">&gt;</text><text x="2.64" y="2.2" class="c">#</text><text x="5.28" y="2.2" class="c">get</text><text x="10.56" y="2.2" class="c">mean</text><text x="17.16" y="2.2" class="c">sepal</text><text x="25.080000000000002" y="2.2" class="c">length</text><text x="34.32" y="2.2" class="c">b</text></svg><svg x="2160"><use xlink:href="#a"></use><use xlink:href="#7" y="0"></use></svg><svg x="2240"><use xlink:href="#a"></use><use xlink:href="#7" y="0"></use></svg><svg x="2320"><use xlink:href="#a"></use><text x="0" y="2.2" class="c">&gt;</text><text x="2.64" y="2.2" class="c">#</text><text x="5.28" y="2.2" class="c">get</text><text x="10.56" y="2.2" class="c">mean</text><text x="17.16" y="2.2" class="c">sepal</text><text x="25.080000000000002" y="2.2" class="c">length</text><text x="34.32" y="2.2" class="c">by</text><text x="38.28" y="2.2" class="c">s</text></svg><svg x="2400"><use xlink:href="#a"></use><text x="0" y="2.2" class="c">&gt;</text><text x="2.64" y="2.2" class="c">#</text><text x="5.28" y="2.2" class="c">get</text><text x="10.56" y="2.2" class="c">mean</text><text x="17.16" y="2.2" class="c">sepal</text><text x="25.080000000000002" y="2.2" class="c">length</text><text x="34.32" y="2.2" class="c">by</text><text x="38.28" y="2.2" class="c">sp</text></svg><svg x="2480"><use xlink:href="#a"></use><text x="0" y="2.2" class="c">&gt;</text><text x="2.64" y="2.2" class="c">#</text><text x="5.28" y="2.2" class="c">get</text><text x="10.56" y="2.2" class="c">mean</text><text x="17.16" y="2.2" class="c">sepal</text><text x="25.080000000000002" y="2.2" class="c">length</text><text x="34.32" y="2.2" class="c">by</text><text x="38.28" y="2.2" class="c">spe</text></svg><svg x="2560"><use xlink:href="#a"></use><text x="0" y="2.2" class="c">&gt;</text><text x="2.64" y="2.2" class="c">#</text><text x="5.28" y="2.2" class="c">get</text><text x="10.56" y="2.2" class="c">mean</text><text x="17.16" y="2.2" class="c">sepal</text><text x="25.080000000000002" y="2.2" class="c">length</text><text x="34.32" y="2.2" class="c">by</text><text x="38.28" y="2.2" class="c">spec</text></svg><svg x="2640"><use xlink:href="#a"></use><text x="0" y="2.2" class="c">&gt;</text><text x="2.64" y="2.2" class="c">#</text><text x="5.28" y="2.2" class="c">get</text><text x="10.56" y="2.2" class="c">mean</text><text x="17.16" y="2.2" class="c">sepal</text><text x="25.080000000000002" y="2.2" class="c">length</text><text x="34.32" y="2.2" class="c">by</text><text x="38.28" y="2.2" class="c">speci</text></svg><svg x="2720"><use xlink:href="#a"></use><text x="0" y="2.2" class="c">&gt;</text><text x="2.64" y="2.2" class="c">#</text><text x="5.28" y="2.2" class="c">get</text><text x="10.56" y="2.2" class="c">mean</text><text x="17.16" y="2.2" class="c">sepal</text><text x="25.080000000000002" y="2.2" class="c">length</text><text x="34.32" y="2.2" class="c">by</text><text x="38.28" y="2.2" class="c">specie</text></svg><svg x="2800"><use xlink:href="#a"></use><use xlink:href="#8" y="0"></use></svg><svg x="2880"><use xlink:href="#a"></use><use xlink:href="#8" y="0"></use></svg><svg x="2960"><use xlink:href="#a"></use><use xlink:href="#8" y="0"></use><use xlink:href="#1" y="2.8600000000000003"></use></svg><svg x="3040"><use xlink:href="#a"></use><use xlink:href="#8" y="0"></use><use xlink:href="#9" y="2.8600000000000003"></use></svg><svg x="3120"><use xlink:href="#a"></use><use xlink:href="#8" y="0"></use><use xlink:href="#9" y="2.8600000000000003"></use></svg><svg x="3200"><use xlink:href="#a"></use><use xlink:href="#8" y="0"></use><text x="0" y="5.0600000000000005" class="c">&gt;</text><text x="2.64" y="5.0600000000000005" class="c">x</text><text x="5.28" y="5.0600000000000005" class="c">&lt;</text></svg><svg x="3280"><use xlink:href="#a"></use><use xlink:href="#8" y="0"></use><use xlink:href="#10" y="2.8600000000000003"></use></svg><svg x="3360"><use xlink:href="#a"></use><use xlink:href="#8" y="0"></use><use xlink:href="#10" y="2.8600000000000003"></use></svg><svg x="3440"><use xlink:href="#a"></use><use xlink:href="#8" y="0"></use><text x="0" y="5.0600000000000005" class="c">&gt;</text><text x="2.64" y="5.0600000000000005" class="c">x</text><text x="5.28" y="5.0600000000000005" class="c">&lt;-</text><text x="9.24" y="5.0600000000000005" class="c">s</text></svg><svg x="3520"><use xlink:href="#a"></use><use xlink:href="#8" y="0"></use><text x="0" y="5.0600000000000005" class="c">&gt;</text><text x="2.64" y="5.0600000000000005" class="c">x</text><text x="5.28" y="5.0600000000000005" class="c">&lt;-</text><text x="9.24" y="5.0600000000000005" class="c">su</text></svg><svg x="3600"><use xlink:href="#a"></use><use xlink:href="#8" y="0"></use><text x="0" y="5.0600000000000005" class="c">&gt;</text><text x="2.64" y="5.0600000000000005" class="c">x</text><text x="5.28" y="5.0600000000000005" class="c">&lt;-</text><text x="9.24" y="5.0600000000000005" class="c">sum</text></svg><svg x="3680"><use xlink:href="#a"></use><use xlink:href="#8" y="0"></use><text x="0" y="5.0600000000000005" class="c">&gt;</text><text x="2.64" y="5.0600000000000005" class="c">x</text><text x="5.28" y="5.0600000000000005" class="c">&lt;-</text><text x="9.24" y="5.0600000000000005" class="c">summ</text></svg><svg x="3760"><use xlink:href="#a"></use><use xlink:href="#8" y="0"></use><text x="0" y="5.0600000000000005" class="c">&gt;</text><text x="2.64" y="5.0600000000000005" class="c">x</text><text x="5.28" y="5.0600000000000005" class="c">&lt;-</text><text x="9.24" y="5.0600000000000005" class="c">summa</text></svg><svg x="3840"><use xlink:href="#a"></use><use xlink:href="#8" y="0"></use><text x="0" y="5.0600000000000005" class="c">&gt;</text><text x="2.64" y="5.0600000000000005" class="c">x</text><text x="5.28" y="5.0600000000000005" class="c">&lt;-</text><text x="9.24" y="5.0600000000000005" class="c">summar</text></svg><svg x="3920"><use xlink:href="#a"></use><use xlink:href="#8" y="0"></use><text x="0" y="5.0600000000000005" class="c">&gt;</text><text x="2.64" y="5.0600000000000005" class="c">x</text><text x="5.28" y="5.0600000000000005" class="c">&lt;-</text><text x="9.24" y="5.0600000000000005" class="c">summari</text></svg><svg x="4000"><use xlink:href="#a"></use><use xlink:href="#8" y="0"></use><text x="0" y="5.0600000000000005" class="c">&gt;</text><text x="2.64" y="5.0600000000000005" class="c">x</text><text x="5.28" y="5.0600000000000005" class="c">&lt;-</text><text x="9.24" y="5.0600000000000005" class="c">summariz</text></svg><svg x="4080"><use xlink:href="#a"></use><use xlink:href="#8" y="0"></use><text x="0" y="5.0600000000000005" class="c">&gt;</text><text x="2.64" y="5.0600000000000005" class="c">x</text><text x="5.28" y="5.0600000000000005" class="c">&lt;-</text><text x="9.24" y="5.0600000000000005" class="c">summarize</text></svg><svg x="4160"><use xlink:href="#a"></use><use xlink:href="#8" y="0"></use><text x="0" y="5.0600000000000005" class="c">&gt;</text><text x="2.64" y="5.0600000000000005" class="c">x</text><text x="5.28" y="5.0600000000000005" class="c">&lt;-</text><text x="9.24" y="5.0600000000000005" class="c">summarize_</text></svg><svg x="4240"><use xlink:href="#a"></use><use xlink:href="#8" y="0"></use><text x="0" y="5.0600000000000005" class="c">&gt;</text><text x="2.64" y="5.0600000000000005" class="c">x</text><text x="5.28" y="5.0600000000000005" class="c">&lt;-</text><text x="9.24" y="5.0600000000000005" class="c">summarize_i</text></svg><svg x="4320"><use xlink:href="#a"></use><use xlink:href="#8" y="0"></use><text x="0" y="5.0600000000000005" class="c">&gt;</text><text x="2.64" y="5.0600000000000005" class="c">x</text><text x="5.28" y="5.0600000000000005" class="c">&lt;-</text><text x="9.24" y="5.0600000000000005" class="c">summarize_ir</text></svg><svg x="4400"><use xlink:href="#a"></use><use xlink:href="#8" y="0"></use><text x="0" y="5.0600000000000005" class="c">&gt;</text><text x="2.64" y="5.0600000000000005" class="c">x</text><text x="5.28" y="5.0600000000000005" class="c">&lt;-</text><text x="9.24" y="5.0600000000000005" class="c">summarize_iri</text></svg><svg x="4480"><use xlink:href="#a"></use><use xlink:href="#8" y="0"></use><text x="0" y="5.0600000000000005" class="c">&gt;</text><text x="2.64" y="5.0600000000000005" class="c">x</text><text x="5.28" y="5.0600000000000005" class="c">&lt;-</text><text x="9.24" y="5.0600000000000005" class="c">summarize_iris</text></svg><svg x="4560"><use xlink:href="#a"></use><use xlink:href="#8" y="0"></use><text x="0" y="5.0600000000000005" class="c">&gt;</text><text x="2.64" y="5.0600000000000005" class="c">x</text><text x="5.28" y="5.0600000000000005" class="c">&lt;-</text><text x="9.24" y="5.0600000000000005" class="c">summarize_iris(</text></svg><svg x="4640"><use xlink:href="#a"></use><use xlink:href="#8" y="0"></use><use xlink:href="#11" y="2.8600000000000003"></use></svg><svg x="4720"><use xlink:href="#a"></use><use xlink:href="#8" y="0"></use><use xlink:href="#11" y="2.8600000000000003"></use></svg><svg x="4800"><use xlink:href="#a"></use><use xlink:href="#8" y="0"></use><use xlink:href="#11" y="2.8600000000000003"></use><use xlink:href="#1" y="5.720000000000001"></use></svg><svg x="4880"><use xlink:href="#a"></use><use xlink:href="#8" y="0"></use><use xlink:href="#11" y="2.8600000000000003"></use><use xlink:href="#1" y="5.720000000000001"></use></svg><svg x="4960"><use xlink:href="#a"></use><use xlink:href="#8" y="0"></use><use xlink:href="#11" y="2.8600000000000003"></use><use xlink:href="#1" y="5.720000000000001"></use><use xlink:href="#1" y="8.580000000000002"></use></svg><svg x="5040"><use xlink:href="#a"></use><use xlink:href="#8" y="0"></use><use xlink:href="#11" y="2.8600000000000003"></use><use xlink:href="#1" y="5.720000000000001"></use><use xlink:href="#2" y="8.580000000000002"></use></svg><svg x="5120"><use xlink:href="#a"></use><use xlink:href="#8" y="0"></use><use xlink:href="#11" y="2.8600000000000003"></use><use xlink:href="#1" y="5.720000000000001"></use><use xlink:href="#2" y="8.580000000000002"></use></svg><svg x="5200"><use xlink:href="#a"></use><use xlink:href="#8" y="0"></use><use xlink:href="#11" y="2.8600000000000003"></use><use xlink:href="#1" y="5.720000000000001"></use><text x="0" y="10.780000000000001" class="c">&gt;</text><text x="2.64" y="10.780000000000001" class="c">#</text><text x="5.28" y="10.780000000000001" class="c">p</text></svg><svg x="5280"><use xlink:href="#a"></use><use xlink:href="#8" y="0"></use><use xlink:href="#11" y="2.8600000000000003"></use><use xlink:href="#1" y="5.720000000000001"></use><text x="0" y="10.780000000000001" class="c">&gt;</text><text x="2.64" y="10.780000000000001" class="c">#</text><text x="5.28" y="10.780000000000001" class="c">pl</text></svg><svg x="5360"><use xlink:href="#a"></use><use xlink:href="#8" y="0"></use><use xlink:href="#11" y="2.8600000000000003"></use><use xlink:href="#1" y="5.720000000000001"></use><text x="0" y="10.780000000000001" class="c">&gt;</text><text x="2.64" y="10.780000000000001" class="c">#</text><text x="5.28" y="10.780000000000001" class="c">plo</text></svg><svg x="5440"><use xlink:href="#a"></use><use xlink:href="#8" y="0"></use><use xlink:href="#11" y="2.8600000000000003"></use><use xlink:href="#1" y="5.720000000000001"></use><use xlink:href="#12" y="8.580000000000002"></use></svg><svg x="5520"><use xlink:href="#a"></use><use xlink:href="#8" y="0"></use><use xlink:href="#11" y="2.8600000000000003"></use><use xlink:href="#1" y="5.720000000000001"></use><use xlink:href="#12" y="8.580000000000002"></use></svg><svg x="5600"><use xlink:href="#a"></use><use xlink:href="#8" y="0"></use><use xlink:href="#11" y="2.8600000000000003"></use><use xlink:href="#1" y="5.720000000000001"></use><text x="0" y="10.780000000000001" class="c">&gt;</text><text x="2.64" y="10.780000000000001" class="c">#</text><text x="5.28" y="10.780000000000001" class="c">plot</text><text x="11.88" y="10.780000000000001" class="c">m</text></svg><svg x="5680"><use xlink:href="#a"></use><use xlink:href="#8" y="0"></use><use xlink:href="#11" y="2.8600000000000003"></use><use xlink:href="#1" y="5.720000000000001"></use><text x="0" y="10.780000000000001" class="c">&gt;</text><text x="2.64" y="10.780000000000001" class="c">#</text><text x="5.28" y="10.780000000000001" class="c">plot</text><text x="11.88" y="10.780000000000001" class="c">me</text></svg><svg x="5760"><use xlink:href="#a"></use><use xlink:href="#8" y="0"></use><use xlink:href="#11" y="2.8600000000000003"></use><use xlink:href="#1" y="5.720000000000001"></use><text x="0" y="10.780000000000001" class="c">&gt;</text><text x="2.64" y="10.780000000000001" class="c">#</text><text x="5.28" y="10.780000000000001" class="c">plot</text><text x="11.88" y="10.780000000000001" class="c">mea</text></svg><svg x="5840"><use xlink:href="#a"></use><use xlink:href="#8" y="0"></use><use xlink:href="#11" y="2.8600000000000003"></use><use xlink:href="#1" y="5.720000000000001"></use><use xlink:href="#13" y="8.580000000000002"></use></svg><svg x="5920"><use xlink:href="#a"></use><use xlink:href="#8" y="0"></use><use xlink:href="#11" y="2.8600000000000003"></use><use xlink:href="#1" y="5.720000000000001"></use><use xlink:href="#13" y="8.580000000000002"></use></svg><svg x="6000"><use xlink:href="#a"></use><use xlink:href="#8" y="0"></use><use xlink:href="#11" y="2.8600000000000003"></use><use xlink:href="#1" y="5.720000000000001"></use><text x="0" y="10.780000000000001" class="c">&gt;</text><text x="2.64" y="10.780000000000001" class="c">#</text><text x="5.28" y="10.780000000000001" class="c">plot</text><text x="11.88" y="10.780000000000001" class="c">mean</text><text x="18.48" y="10.780000000000001" class="c">s</text></svg><svg x="6080"><use xlink:href="#a"></use><use xlink:href="#8" y="0"></use><use xlink:href="#11" y="2.8600000000000003"></use><use xlink:href="#1" y="5.720000000000001"></use><text x="0" y="10.780000000000001" class="c">&gt;</text><text x="2.64" y="10.780000000000001" class="c">#</text><text x="5.28" y="10.780000000000001" class="c">plot</text><text x="11.88" y="10.780000000000001" class="c">mean</text><text x="18.48" y="10.780000000000001" class="c">se</text></svg><svg x="6160"><use xlink:href="#a"></use><use xlink:href="#8" y="0"></use><use xlink:href="#11" y="2.8600000000000003"></use><use xlink:href="#1" y="5.720000000000001"></use><text x="0" y="10.780000000000001" class="c">&gt;</text><text x="2.64" y="10.780000000000001" class="c">#</text><text x="5.28" y="10.780000000000001" class="c">plot</text><text x="11.88" y="10.780000000000001" class="c">mean</text><text x="18.48" y="10.780000000000001" class="c">sep</text></svg><svg x="6240"><use xlink:href="#a"></use><use xlink:href="#8" y="0"></use><use xlink:href="#11" y="2.8600000000000003"></use><use xlink:href="#1" y="5.720000000000001"></use><text x="0" y="10.780000000000001" class="c">&gt;</text><text x="2.64" y="10.780000000000001" class="c">#</text><text x="5.28" y="10.780000000000001" class="c">plot</text><text x="11.88" y="10.780000000000001" class="c">mean</text><text x="18.48" y="10.780000000000001" class="c">sepa</text></svg><svg x="6320"><use xlink:href="#a"></use><use xlink:href="#8" y="0"></use><use xlink:href="#11" y="2.8600000000000003"></use><use xlink:href="#1" y="5.720000000000001"></use><use xlink:href="#14" y="8.580000000000002"></use></svg><svg x="6400"><use xlink:href="#a"></use><use xlink:href="#8" y="0"></use><use xlink:href="#11" y="2.8600000000000003"></use><use xlink:href="#1" y="5.720000000000001"></use><use xlink:href="#14" y="8.580000000000002"></use></svg><svg x="6480"><use xlink:href="#a"></use><use xlink:href="#8" y="0"></use><use xlink:href="#11" y="2.8600000000000003"></use><use xlink:href="#1" y="5.720000000000001"></use><text x="0" y="10.780000000000001" class="c">&gt;</text><text x="2.64" y="10.780000000000001" class="c">#</text><text x="5.28" y="10.780000000000001" class="c">plot</text><text x="11.88" y="10.780000000000001" class="c">mean</text><text x="18.48" y="10.780000000000001" class="c">sepal</text><text x="26.4" y="10.780000000000001" class="c">l</text></svg><svg x="6560"><use xlink:href="#a"></use><use xlink:href="#8" y="0"></use><use xlink:href="#11" y="2.8600000000000003"></use><use xlink:href="#1" y="5.720000000000001"></use><text x="0" y="10.780000000000001" class="c">&gt;</text><text x="2.64" y="10.780000000000001" class="c">#</text><text x="5.28" y="10.780000000000001" class="c">plot</text><text x="11.88" y="10.780000000000001" class="c">mean</text><text x="18.48" y="10.780000000000001" class="c">sepal</text><text x="26.4" y="10.780000000000001" class="c">le</text></svg><svg x="6640"><use xlink:href="#a"></use><use xlink:href="#8" y="0"></use><use xlink:href="#11" y="2.8600000000000003"></use><use xlink:href="#1" y="5.720000000000001"></use><text x="0" y="10.780000000000001" class="c">&gt;</text><text x="2.64" y="10.780000000000001" class="c">#</text><text x="5.28" y="10.780000000000001" class="c">plot</text><text x="11.88" y="10.780000000000001" class="c">mean</text><text x="18.48" y="10.780000000000001" class="c">sepal</text><text x="26.4" y="10.780000000000001" class="c">len</text></svg><svg x="6720"><use xlink:href="#a"></use><use xlink:href="#8" y="0"></use><use xlink:href="#11" y="2.8600000000000003"></use><use xlink:href="#1" y="5.720000000000001"></use><text x="0" y="10.780000000000001" class="c">&gt;</text><text x="2.64" y="10.780000000000001" class="c">#</text><text x="5.28" y="10.780000000000001" class="c">plot</text><text x="11.88" y="10.780000000000001" class="c">mean</text><text x="18.48" y="10.780000000000001" class="c">sepal</text><text x="26.4" y="10.780000000000001" class="c">leng</text></svg><svg x="6800"><use xlink:href="#a"></use><use xlink:href="#8" y="0"></use><use xlink:href="#11" y="2.8600000000000003"></use><use xlink:href="#1" y="5.720000000000001"></use><text x="0" y="10.780000000000001" class="c">&gt;</text><text x="2.64" y="10.780000000000001" class="c">#</text><text x="5.28" y="10.780000000000001" class="c">plot</text><text x="11.88" y="10.780000000000001" class="c">mean</text><text x="18.48" y="10.780000000000001" class="c">sepal</text><text x="26.4" y="10.780000000000001" class="c">lengt</text></svg><svg x="6880"><use xlink:href="#a"></use><use xlink:href="#8" y="0"></use><use xlink:href="#11" y="2.8600000000000003"></use><use xlink:href="#1" y="5.720000000000001"></use><use xlink:href="#15" y="8.580000000000002"></use></svg><svg x="6960"><use xlink:href="#a"></use><use xlink:href="#8" y="0"></use><use xlink:href="#11" y="2.8600000000000003"></use><use xlink:href="#1" y="5.720000000000001"></use><use xlink:href="#15" y="8.580000000000002"></use></svg><svg x="7040"><use xlink:href="#a"></use><use xlink:href="#8" y="0"></use><use xlink:href="#11" y="2.8600000000000003"></use><use xlink:href="#1" y="5.720000000000001"></use><use xlink:href="#15" y="8.580000000000002"></use><use xlink:href="#1" y="11.440000000000001"></use></svg><svg x="7120"><use xlink:href="#a"></use><use xlink:href="#8" y="0"></use><use xlink:href="#11" y="2.8600000000000003"></use><use xlink:href="#1" y="5.720000000000001"></use><use xlink:href="#15" y="8.580000000000002"></use><use xlink:href="#16" y="11.440000000000001"></use></svg><svg x="7200"><use xlink:href="#a"></use><use xlink:href="#8" y="0"></use><use xlink:href="#11" y="2.8600000000000003"></use><use xlink:href="#1" y="5.720000000000001"></use><use xlink:href="#15" y="8.580000000000002"></use><use xlink:href="#16" y="11.440000000000001"></use></svg><svg x="7280"><use xlink:href="#a"></use><use xlink:href="#8" y="0"></use><use xlink:href="#11" y="2.8600000000000003"></use><use xlink:href="#1" y="5.720000000000001"></use><use xlink:href="#15" y="8.580000000000002"></use><text x="0" y="13.64" class="c">&gt;</text><text x="2.64" y="13.64" class="c">p</text><text x="5.28" y="13.64" class="c">&lt;</text></svg><svg x="7360"><use xlink:href="#a"></use><use xlink:href="#8" y="0"></use><use xlink:href="#11" y="2.8600000000000003"></use><use xlink:href="#1" y="5.720000000000001"></use><use xlink:href="#15" y="8.580000000000002"></use><use xlink:href="#17" y="11.440000000000001"></use></svg><svg x="7440"><use xlink:href="#a"></use><use xlink:href="#8" y="0"></use><use xlink:href="#11" y="2.8600000000000003"></use><use xlink:href="#1" y="5.720000000000001"></use><use xlink:href="#15" y="8.580000000000002"></use><use xlink:href="#17" y="11.440000000000001"></use></svg><svg x="7520"><use xlink:href="#a"></use><use xlink:href="#8" y="0"></use><use xlink:href="#11" y="2.8600000000000003"></use><use xlink:href="#1" y="5.720000000000001"></use><use xlink:href="#15" y="8.580000000000002"></use><text x="0" y="13.64" class="c">&gt;</text><text x="2.64" y="13.64" class="c">p</text><text x="5.28" y="13.64" class="c">&lt;-</text><text x="9.24" y="13.64" class="c">p</text></svg><svg x="7600"><use xlink:href="#a"></use><use xlink:href="#8" y="0"></use><use xlink:href="#11" y="2.8600000000000003"></use><use xlink:href="#1" y="5.720000000000001"></use><use xlink:href="#15" y="8.580000000000002"></use><text x="0" y="13.64" class="c">&gt;</text><text x="2.64" y="13.64" class="c">p</text><text x="5.28" y="13.64" class="c">&lt;-</text><text x="9.24" y="13.64" class="c">pl</text></svg><svg x="7680"><use xlink:href="#a"></use><use xlink:href="#8" y="0"></use><use xlink:href="#11" y="2.8600000000000003"></use><use xlink:href="#1" y="5.720000000000001"></use><use xlink:href="#15" y="8.580000000000002"></use><text x="0" y="13.64" class="c">&gt;</text><text x="2.64" y="13.64" class="c">p</text><text x="5.28" y="13.64" class="c">&lt;-</text><text x="9.24" y="13.64" class="c">plo</text></svg><svg x="7760"><use xlink:href="#a"></use><use xlink:href="#8" y="0"></use><use xlink:href="#11" y="2.8600000000000003"></use><use xlink:href="#1" y="5.720000000000001"></use><use xlink:href="#15" y="8.580000000000002"></use><text x="0" y="13.64" class="c">&gt;</text><text x="2.64" y="13.64" class="c">p</text><text x="5.28" y="13.64" class="c">&lt;-</text><text x="9.24" y="13.64" class="c">plot</text></svg><svg x="7840"><use xlink:href="#a"></use><use xlink:href="#8" y="0"></use><use xlink:href="#11" y="2.8600000000000003"></use><use xlink:href="#1" y="5.720000000000001"></use><use xlink:href="#15" y="8.580000000000002"></use><text x="0" y="13.64" class="c">&gt;</text><text x="2.64" y="13.64" class="c">p</text><text x="5.28" y="13.64" class="c">&lt;-</text><text x="9.24" y="13.64" class="c">plot_</text></svg><svg x="7920"><use xlink:href="#a"></use><use xlink:href="#8" y="0"></use><use xlink:href="#11" y="2.8600000000000003"></use><use xlink:href="#1" y="5.720000000000001"></use><use xlink:href="#15" y="8.580000000000002"></use><text x="0" y="13.64" class="c">&gt;</text><text x="2.64" y="13.64" class="c">p</text><text x="5.28" y="13.64" class="c">&lt;-</text><text x="9.24" y="13.64" class="c">plot_i</text></svg><svg x="8000"><use xlink:href="#a"></use><use xlink:href="#8" y="0"></use><use xlink:href="#11" y="2.8600000000000003"></use><use xlink:href="#1" y="5.720000000000001"></use><use xlink:href="#15" y="8.580000000000002"></use><text x="0" y="13.64" class="c">&gt;</text><text x="2.64" y="13.64" class="c">p</text><text x="5.28" y="13.64" class="c">&lt;-</text><text x="9.24" y="13.64" class="c">plot_ir</text></svg><svg x="8080"><use xlink:href="#a"></use><use xlink:href="#8" y="0"></use><use xlink:href="#11" y="2.8600000000000003"></use><use xlink:href="#1" y="5.720000000000001"></use><use xlink:href="#15" y="8.580000000000002"></use><text x="0" y="13.64" class="c">&gt;</text><text x="2.64" y="13.64" class="c">p</text><text x="5.28" y="13.64" class="c">&lt;-</text><text x="9.24" y="13.64" class="c">plot_iri</text></svg><svg x="8160"><use xlink:href="#a"></use><use xlink:href="#8" y="0"></use><use xlink:href="#11" y="2.8600000000000003"></use><use xlink:href="#1" y="5.720000000000001"></use><use xlink:href="#15" y="8.580000000000002"></use><text x="0" y="13.64" class="c">&gt;</text><text x="2.64" y="13.64" class="c">p</text><text x="5.28" y="13.64" class="c">&lt;-</text><text x="9.24" y="13.64" class="c">plot_iris</text></svg><svg x="8240"><use xlink:href="#a"></use><use xlink:href="#8" y="0"></use><use xlink:href="#11" y="2.8600000000000003"></use><use xlink:href="#1" y="5.720000000000001"></use><use xlink:href="#15" y="8.580000000000002"></use><text x="0" y="13.64" class="c">&gt;</text><text x="2.64" y="13.64" class="c">p</text><text x="5.28" y="13.64" class="c">&lt;-</text><text x="9.24" y="13.64" class="c">plot_iris(</text></svg><svg x="8320"><use xlink:href="#a"></use><use xlink:href="#8" y="0"></use><use xlink:href="#11" y="2.8600000000000003"></use><use xlink:href="#1" y="5.720000000000001"></use><use xlink:href="#15" y="8.580000000000002"></use><use xlink:href="#18" y="11.440000000000001"></use></svg><svg x="8400"><use xlink:href="#a"></use><use xlink:href="#8" y="0"></use><use xlink:href="#11" y="2.8600000000000003"></use><use xlink:href="#1" y="5.720000000000001"></use><use xlink:href="#15" y="8.580000000000002"></use><use xlink:href="#18" y="11.440000000000001"></use></svg><svg x="8480"><use xlink:href="#a"></use><use xlink:href="#8" y="0"></use><use xlink:href="#11" y="2.8600000000000003"></use><use xlink:href="#1" y="5.720000000000001"></use><use xlink:href="#15" y="8.580000000000002"></use><use xlink:href="#18" y="11.440000000000001"></use><use xlink:href="#1" y="14.3"></use></svg><svg x="8560"><use xlink:href="#a"></use><use xlink:href="#8" y="0"></use><use xlink:href="#11" y="2.8600000000000003"></use><use xlink:href="#1" y="5.720000000000001"></use><use xlink:href="#15" y="8.580000000000002"></use><use xlink:href="#18" y="11.440000000000001"></use><use xlink:href="#1" y="14.3"></use></svg></svg></g></g></svg></svg>