<svg xmlns="http://www.w3.org/2000/svg" xmlns:xlink="http://www.w3.org/1999/xlink" width="1650" height="686.4000000000001"><rect width="1650" height="686.4000000000001" rx="0" ry="0" class="a"></rect><svg height="686.4000000000001" viewBox="0 0 165 68.64000000000001" width="1650" xmlns="http://www.w3.org/2000/svg" xmlns:xlink="http://www.w3.org/1999/xlink"><style>.a{fill:rgb(40,45,53)}.b{font-family:'Fira Code',Monaco,Consolas,Menlo,'Bitstream Vera Sans Mono','Powerline Symbols',monospace}.c{fill:rgb(185,192,203);white-space:pre}.d{fill:rgb(168,204,140);white-space:pre}.e{fill:rgb(113,190,242);white-space:pre}.f{fill:transparent}.h{animation-duration:8.48901391029358s;animation-iteration-count:infinite;animation-name:g;animation-timing-function:steps(1,end)}@keyframes g{0%{transform:translateX(-0px)}0%{transform:translateX(-165px)}6%{transform:translateX(-330px)}6.4%{transform:translateX(-495px)}7%{transform:translateX(-660px)}7.9%{transform:translateX(-825px)}8.5%{transform:translateX(-990px)}9%{transform:translateX(-1155px)}9.4%{transform:translateX(-1320px)}10.1%{transform:translateX(-1485px)}10.7%{transform:translateX(-1650px)}11.2%{transform:translateX(-1815px)}12.1%{transform:translateX(-1980px)}12.6%{transform:translateX(-2145px)}13%{transform:translateX(-2310px)}13.8%{transform:translateX(-2475px)}14.5%{transform:translateX(-2640px)}15%{transform:translateX(-2805px)}15.6%{transform:translateX(-2970px)}15.6%{transform:translateX(-3135px)}16.3%{transform:translateX(-3300px)}16.9%{transform:translateX(-3465px)}17.8%{transform:translateX(-3630px)}18.3%{transform:translateX(-3795px)}19.1%{transform:translateX(-3960px)}19.7%{transform:translateX(-4125px)}20.5%{transform:translateX(-4290px)}20.9%{transform:translateX(-4455px)}21.8%{transform:translateX(-4620px)}22.1%{transform:translateX(-4785px)}22.5%{transform:translateX(-4950px)}23.3%{transform:translateX(-5115px)}23.9%{transform:translateX(-5280px)}24.2%{transform:translateX(-5445px)}25%{transform:translateX(-5610px)}25.8%{transform:translateX(-5775px)}26.5%{transform:translateX(-5940px)}27%{transform:translateX(-6105px)}27.4%{transform:translateX(-6270px)}27.8%{transform:translateX(-6435px)}28.5%{transform:translateX(-6600px)}29.1%{transform:translateX(-6765px)}29.5%{transform:translateX(-6930px)}30.2%{transform:translateX(-7095px)}30.5%{transform:translateX(-7260px)}31%{transform:translateX(-7425px)}31.9%{transform:translateX(-7590px)}32.6%{transform:translateX(-7755px)}33%{transform:translateX(-7920px)}33.4%{transform:translateX(-8085px)}34.2%{transform:translateX(-8250px)}34.9%{transform:translateX(-8415px)}35.3%{transform:translateX(-8580px)}35.7%{transform:translateX(-8745px)}36.1%{transform:translateX(-8910px)}36.4%{transform:translateX(-9075px)}36.8%{transform:translateX(-9240px)}37.2%{transform:translateX(-9405px)}38%{transform:translateX(-9570px)}38.6%{transform:translateX(-9735px)}38.9%{transform:translateX(-9900px)}39.1%{transform:translateX(-10065px)}39.6%{transform:translateX(-10230px)}39.7%{transform:translateX(-10395px)}40%{transform:translateX(-10560px)}40.8%{transform:translateX(-10725px)}41%{transform:translateX(-10890px)}41.1%{transform:translateX(-11055px)}41.1%{transform:translateX(-11220px)}41.1%{transform:translateX(-11385px)}100%{transform:translateX(-11550px)}}</style><g font-family="&#x27;Fira Code&#x27;,Monaco,Consolas,Menlo,&#x27;Bitstream Vera Sans Mono&#x27;,&#x27;Powerline Symbols&#x27;,monospace" font-size="2.2" class="b"><defs><symbol id="1"><text x="0" y="2.2" class="c">&gt;</text></symbol><symbol id="2"><text x="0" y="2.2" class="c">&gt;</text><text x="2.64" y="2.2" class="c">library(usethis)</text></symbol><symbol id="3"><text x="0" y="2.2" class="c">&gt;</text><text x="2.64" y="2.2" class="c">create_package(pkg_dir,</text></symbol><symbol id="4"><text x="0" y="2.2" class="c">&gt;</text><text x="2.64" y="2.2" class="c">create_package(pkg_dir,</text><text x="34.32" y="2.2" class="c">rstudio</text></symbol><symbol id="5"><text x="0" y="2.2" class="c">&gt;</text><text x="2.64" y="2.2" class="c">create_package(pkg_dir,</text><text x="34.32" y="2.2" class="c">rstudio</text><text x="44.88" y="2.2" class="c">=</text></symbol><symbol id="6"><text x="0" y="2.2" class="c">&gt;</text><text x="2.64" y="2.2" class="c">create_package(pkg_dir,</text><text x="34.32" y="2.2" class="c">rstudio</text><text x="44.88" y="2.2" class="c">=</text><text x="47.52" y="2.2" class="c">TRUE)</text></symbol><symbol id="7"><text x="0" y="2.2" class="d">✔</text><text x="2.64" y="2.2" class="c">Setting</text><text x="13.2" y="2.2" class="c">active</text><text x="22.44" y="2.2" class="c">project</text><text x="33" y="2.2" class="c">to</text><text x="36.96" y="2.2" class="e">&#x27;/private/var/folders/03/9x7925g54mncswxx06wpkxl00000gn/T/Rtmpp8fEVF/filedcf4940f47/zenartrpkgs&#x27;</text></symbol><symbol id="8"><text x="0" y="2.2" class="d">✔</text><text x="2.64" y="2.2" class="c">Creating</text><text x="14.520000000000001" y="2.2" class="e">&#x27;R/&#x27;</text></symbol><symbol id="9"><text x="0" y="2.2" class="d">✔</text><text x="2.64" y="2.2" class="c">Writing</text><text x="13.2" y="2.2" class="e">&#x27;DESCRIPTION&#x27;</text></symbol><symbol id="10"><text x="0" y="2.2" class="e">Package</text><text x="9.24" y="2.2" class="c">:</text><text x="11.88" y="2.2" class="c">zenartrpkgs</text></symbol><symbol id="11"><text x="0" y="2.2" class="e">Title</text><text x="6.6" y="2.2" class="c">:</text><text x="9.24" y="2.2" class="c">What</text><text x="15.84" y="2.2" class="c">the</text><text x="21.12" y="2.2" class="c">Package</text><text x="31.68" y="2.2" class="c">Does</text><text x="38.28" y="2.2" class="c">(One</text><text x="44.88" y="2.2" class="c">Line,</text><text x="52.8" y="2.2" class="c">Title</text><text x="60.72" y="2.2" class="c">Case)</text></symbol><symbol id="12"><text x="0" y="2.2" class="e">Version</text><text x="9.24" y="2.2" class="c">:</text><text x="11.88" y="2.2" class="c">0.0.0.9000</text></symbol><symbol id="13"><text x="0" y="2.2" class="e">Authors@R</text><text x="13.2" y="2.2" class="c">(parsed):</text></symbol><symbol id="14"><text x="5.28" y="2.2" class="c">*</text><text x="7.92" y="2.2" class="c">Malcolm</text><text x="18.48" y="2.2" class="c">Barrett</text><text x="29.040000000000003" y="2.2" class="c">&lt;malcolmbarrett@gmail.com&gt;</text><text x="64.68" y="2.2" class="c">[aut,</text><text x="72.60000000000001" y="2.2" class="c">cre]</text><text x="79.2" y="2.2" class="c">(&lt;https://orcid.org/0000-0003-0299-5825&gt;)</text></symbol><symbol id="15"><text x="0" y="2.2" class="e">Description</text><text x="14.520000000000001" y="2.2" class="c">:</text><text x="17.16" y="2.2" class="c">What</text><text x="23.76" y="2.2" class="c">the</text><text x="29.040000000000003" y="2.2" class="c">package</text><text x="39.6" y="2.2" class="c">does</text><text x="46.199999999999996" y="2.2" class="c">(one</text><text x="52.8" y="2.2" class="c">paragraph).</text></symbol><symbol id="16"><text x="0" y="2.2" class="e">License</text><text x="9.24" y="2.2" class="c">:</text><text x="11.88" y="2.2" class="c">MIT</text><text x="17.16" y="2.2" class="c">+</text><text x="19.8" y="2.2" class="c">file</text><text x="26.4" y="2.2" class="c">LICENSE</text></symbol><symbol id="17"><text x="0" y="2.2" class="e">Encoding</text><text x="10.56" y="2.2" class="c">:</text><text x="13.2" y="2.2" class="c">UTF-8</text></symbol><symbol id="18"><text x="0" y="2.2" class="e">LazyData</text><text x="10.56" y="2.2" class="c">:</text><text x="13.2" y="2.2" class="c">true</text></symbol><symbol id="19"><text x="0" y="2.2" class="d">✔</text><text x="2.64" y="2.2" class="c">Writing</text><text x="13.2" y="2.2" class="e">&#x27;NAMESPACE&#x27;</text></symbol><symbol id="20"><text x="0" y="2.2" class="d">✔</text><text x="2.64" y="2.2" class="c">Writing</text><text x="13.2" y="2.2" class="e">&#x27;zenartrpkgs.Rproj&#x27;</text></symbol><symbol id="21"><text x="0" y="2.2" class="d">✔</text><text x="2.64" y="2.2" class="c">Adding</text><text x="11.88" y="2.2" class="e">&#x27;.Rproj.user&#x27;</text><text x="30.36" y="2.2" class="c">to</text><text x="34.32" y="2.2" class="e">&#x27;.gitignore&#x27;</text></symbol><symbol id="22"><text x="0" y="2.2" class="d">✔</text><text x="2.64" y="2.2" class="c">Adding</text><text x="11.88" y="2.2" class="e">&#x27;^zenartrpkgs\\.Rproj$&#x27;</text><text x="42.24" y="2.2" class="c">,</text><text x="44.88" y="2.2" class="e">&#x27;^\\.Rproj\\.user$&#x27;</text><text x="71.28" y="2.2" class="c">to</text><text x="75.24" y="2.2" class="e">&#x27;.Rbuildignore&#x27;</text></symbol><symbol id="23"><text x="0" y="2.2" class="d">✔</text><text x="2.64" y="2.2" class="c">Setting</text><text x="13.2" y="2.2" class="c">active</text><text x="22.44" y="2.2" class="c">project</text><text x="33" y="2.2" class="c">to</text><text x="36.96" y="2.2" class="e">&#x27;&lt;no</text><text x="43.56" y="2.2" class="e">active</text><text x="52.8" y="2.2" class="e">project&gt;&#x27;</text></symbol><symbol id="a"><rect height="25" width="165" x="0" y="0" class="f"></rect></symbol></defs><rect height="68.64000000000001" width="165" class="a"></rect><g class="h"><svg x="0" y="0" width="11715"><svg x="0"><use xlink:href="#a"></use></svg><svg x="165"><use xlink:href="#a"></use><use xlink:href="#1" y="0"></use></svg><svg x="330"><use xlink:href="#a"></use><text x="0" y="2.2" class="c">&gt;</text><text x="2.64" y="2.2" class="c">l</text></svg><svg x="495"><use xlink:href="#a"></use><text x="0" y="2.2" class="c">&gt;</text><text x="2.64" y="2.2" class="c">li</text></svg><svg x="660"><use xlink:href="#a"></use><text x="0" y="2.2" class="c">&gt;</text><text x="2.64" y="2.2" class="c">lib</text></svg><svg x="825"><use xlink:href="#a"></use><text x="0" y="2.2" class="c">&gt;</text><text x="2.64" y="2.2" class="c">libr</text></svg><svg x="990"><use xlink:href="#a"></use><text x="0" y="2.2" class="c">&gt;</text><text x="2.64" y="2.2" class="c">libra</text></svg><svg x="1155"><use xlink:href="#a"></use><text x="0" y="2.2" class="c">&gt;</text><text x="2.64" y="2.2" class="c">librar</text></svg><svg x="1320"><use xlink:href="#a"></use><text x="0" y="2.2" class="c">&gt;</text><text x="2.64" y="2.2" class="c">library</text></svg><svg x="1485"><use xlink:href="#a"></use><text x="0" y="2.2" class="c">&gt;</text><text x="2.64" y="2.2" class="c">library(</text></svg><svg x="1650"><use xlink:href="#a"></use><text x="0" y="2.2" class="c">&gt;</text><text x="2.64" y="2.2" class="c">library(u</text></svg><svg x="1815"><use xlink:href="#a"></use><text x="0" y="2.2" class="c">&gt;</text><text x="2.64" y="2.2" class="c">library(us</text></svg><svg x="1980"><use xlink:href="#a"></use><text x="0" y="2.2" class="c">&gt;</text><text x="2.64" y="2.2" class="c">library(use</text></svg><svg x="2145"><use xlink:href="#a"></use><text x="0" y="2.2" class="c">&gt;</text><text x="2.64" y="2.2" class="c">library(uset</text></svg><svg x="2310"><use xlink:href="#a"></use><text x="0" y="2.2" class="c">&gt;</text><text x="2.64" y="2.2" class="c">library(useth</text></svg><svg x="2475"><use xlink:href="#a"></use><text x="0" y="2.2" class="c">&gt;</text><text x="2.64" y="2.2" class="c">library(usethi</text></svg><svg x="2640"><use xlink:href="#a"></use><text x="0" y="2.2" class="c">&gt;</text><text x="2.64" y="2.2" class="c">library(usethis</text></svg><svg x="2805"><use xlink:href="#a"></use><use xlink:href="#2" y="0"></use></svg><svg x="2970"><use xlink:href="#a"></use><use xlink:href="#2" y="0"></use></svg><svg x="3135"><use xlink:href="#a"></use><use xlink:href="#2" y="0"></use><use xlink:href="#1" y="2.8600000000000003"></use></svg><svg x="3300"><use xlink:href="#a"></use><use xlink:href="#2" y="0"></use><text x="0" y="5.0600000000000005" class="c">&gt;</text><text x="2.64" y="5.0600000000000005" class="c">c</text></svg><svg x="3465"><use xlink:href="#a"></use><use xlink:href="#2" y="0"></use><text x="0" y="5.0600000000000005" class="c">&gt;</text><text x="2.64" y="5.0600000000000005" class="c">cr</text></svg><svg x="3630"><use xlink:href="#a"></use><use xlink:href="#2" y="0"></use><text x="0" y="5.0600000000000005" class="c">&gt;</text><text x="2.64" y="5.0600000000000005" class="c">cre</text></svg><svg x="3795"><use xlink:href="#a"></use><use xlink:href="#2" y="0"></use><text x="0" y="5.0600000000000005" class="c">&gt;</text><text x="2.64" y="5.0600000000000005" class="c">crea</text></svg><svg x="3960"><use xlink:href="#a"></use><use xlink:href="#2" y="0"></use><text x="0" y="5.0600000000000005" class="c">&gt;</text><text x="2.64" y="5.0600000000000005" class="c">creat</text></svg><svg x="4125"><use xlink:href="#a"></use><use xlink:href="#2" y="0"></use><text x="0" y="5.0600000000000005" class="c">&gt;</text><text x="2.64" y="5.0600000000000005" class="c">create</text></svg><svg x="4290"><use xlink:href="#a"></use><use xlink:href="#2" y="0"></use><text x="0" y="5.0600000000000005" class="c">&gt;</text><text x="2.64" y="5.0600000000000005" class="c">create_</text></svg><svg x="4455"><use xlink:href="#a"></use><use xlink:href="#2" y="0"></use><text x="0" y="5.0600000000000005" class="c">&gt;</text><text x="2.64" y="5.0600000000000005" class="c">create_p</text></svg><svg x="4620"><use xlink:href="#a"></use><use xlink:href="#2" y="0"></use><text x="0" y="5.0600000000000005" class="c">&gt;</text><text x="2.64" y="5.0600000000000005" class="c">create_pa</text></svg><svg x="4785"><use xlink:href="#a"></use><use xlink:href="#2" y="0"></use><text x="0" y="5.0600000000000005" class="c">&gt;</text><text x="2.64" y="5.0600000000000005" class="c">create_pac</text></svg><svg x="4950"><use xlink:href="#a"></use><use xlink:href="#2" y="0"></use><text x="0" y="5.0600000000000005" class="c">&gt;</text><text x="2.64" y="5.0600000000000005" class="c">create_pack</text></svg><svg x="5115"><use xlink:href="#a"></use><use xlink:href="#2" y="0"></use><text x="0" y="5.0600000000000005" class="c">&gt;</text><text x="2.64" y="5.0600000000000005" class="c">create_packa</text></svg><svg x="5280"><use xlink:href="#a"></use><use xlink:href="#2" y="0"></use><text x="0" y="5.0600000000000005" class="c">&gt;</text><text x="2.64" y="5.0600000000000005" class="c">create_packag</text></svg><svg x="5445"><use xlink:href="#a"></use><use xlink:href="#2" y="0"></use><text x="0" y="5.0600000000000005" class="c">&gt;</text><text x="2.64" y="5.0600000000000005" class="c">create_package</text></svg><svg x="5610"><use xlink:href="#a"></use><use xlink:href="#2" y="0"></use><text x="0" y="5.0600000000000005" class="c">&gt;</text><text x="2.64" y="5.0600000000000005" class="c">create_package(</text></svg><svg x="5775"><use xlink:href="#a"></use><use xlink:href="#2" y="0"></use><text x="0" y="5.0600000000000005" class="c">&gt;</text><text x="2.64" y="5.0600000000000005" class="c">create_package(p</text></svg><svg x="5940"><use xlink:href="#a"></use><use xlink:href="#2" y="0"></use><text x="0" y="5.0600000000000005" class="c">&gt;</text><text x="2.64" y="5.0600000000000005" class="c">create_package(pk</text></svg><svg x="6105"><use xlink:href="#a"></use><use xlink:href="#2" y="0"></use><text x="0" y="5.0600000000000005" class="c">&gt;</text><text x="2.64" y="5.0600000000000005" class="c">create_package(pkg</text></svg><svg x="6270"><use xlink:href="#a"></use><use xlink:href="#2" y="0"></use><text x="0" y="5.0600000000000005" class="c">&gt;</text><text x="2.64" y="5.0600000000000005" class="c">create_package(pkg_</text></svg><svg x="6435"><use xlink:href="#a"></use><use xlink:href="#2" y="0"></use><text x="0" y="5.0600000000000005" class="c">&gt;</text><text x="2.64" y="5.0600000000000005" class="c">create_package(pkg_d</text></svg><svg x="6600"><use xlink:href="#a"></use><use xlink:href="#2" y="0"></use><text x="0" y="5.0600000000000005" class="c">&gt;</text><text x="2.64" y="5.0600000000000005" class="c">create_package(pkg_di</text></svg><svg x="6765"><use xlink:href="#a"></use><use xlink:href="#2" y="0"></use><text x="0" y="5.0600000000000005" class="c">&gt;</text><text x="2.64" y="5.0600000000000005" class="c">create_package(pkg_dir</text></svg><svg x="6930"><use xlink:href="#a"></use><use xlink:href="#2" y="0"></use><use xlink:href="#3" y="2.8600000000000003"></use></svg><svg x="7095"><use xlink:href="#a"></use><use xlink:href="#2" y="0"></use><use xlink:href="#3" y="2.8600000000000003"></use></svg><svg x="7260"><use xlink:href="#a"></use><use xlink:href="#2" y="0"></use><text x="0" y="5.0600000000000005" class="c">&gt;</text><text x="2.64" y="5.0600000000000005" class="c">create_package(pkg_dir,</text><text x="34.32" y="5.0600000000000005" class="c">r</text></svg><svg x="7425"><use xlink:href="#a"></use><use xlink:href="#2" y="0"></use><text x="0" y="5.0600000000000005" class="c">&gt;</text><text x="2.64" y="5.0600000000000005" class="c">create_package(pkg_dir,</text><text x="34.32" y="5.0600000000000005" class="c">rs</text></svg><svg x="7590"><use xlink:href="#a"></use><use xlink:href="#2" y="0"></use><text x="0" y="5.0600000000000005" class="c">&gt;</text><text x="2.64" y="5.0600000000000005" class="c">create_package(pkg_dir,</text><text x="34.32" y="5.0600000000000005" class="c">rst</text></svg><svg x="7755"><use xlink:href="#a"></use><use xlink:href="#2" y="0"></use><text x="0" y="5.0600000000000005" class="c">&gt;</text><text x="2.64" y="5.0600000000000005" class="c">create_package(pkg_dir,</text><text x="34.32" y="5.0600000000000005" class="c">rstu</text></svg><svg x="7920"><use xlink:href="#a"></use><use xlink:href="#2" y="0"></use><text x="0" y="5.0600000000000005" class="c">&gt;</text><text x="2.64" y="5.0600000000000005" class="c">create_package(pkg_dir,</text><text x="34.32" y="5.0600000000000005" class="c">rstud</text></svg><svg x="8085"><use xlink:href="#a"></use><use xlink:href="#2" y="0"></use><text x="0" y="5.0600000000000005" class="c">&gt;</text><text x="2.64" y="5.0600000000000005" class="c">create_package(pkg_dir,</text><text x="34.32" y="5.0600000000000005" class="c">rstudi</text></svg><svg x="8250"><use xlink:href="#a"></use><use xlink:href="#2" y="0"></use><use xlink:href="#4" y="2.8600000000000003"></use></svg><svg x="8415"><use xlink:href="#a"></use><use xlink:href="#2" y="0"></use><use xlink:href="#4" y="2.8600000000000003"></use></svg><svg x="8580"><use xlink:href="#a"></use><use xlink:href="#2" y="0"></use><use xlink:href="#5" y="2.8600000000000003"></use></svg><svg x="8745"><use xlink:href="#a"></use><use xlink:href="#2" y="0"></use><use xlink:href="#5" y="2.8600000000000003"></use></svg><svg x="8910"><use xlink:href="#a"></use><use xlink:href="#2" y="0"></use><text x="0" y="5.0600000000000005" class="c">&gt;</text><text x="2.64" y="5.0600000000000005" class="c">create_package(pkg_dir,</text><text x="34.32" y="5.0600000000000005" class="c">rstudio</text><text x="44.88" y="5.0600000000000005" class="c">=</text><text x="47.52" y="5.0600000000000005" class="c">T</text></svg><svg x="9075"><use xlink:href="#a"></use><use xlink:href="#2" y="0"></use><text x="0" y="5.0600000000000005" class="c">&gt;</text><text x="2.64" y="5.0600000000000005" class="c">create_package(pkg_dir,</text><text x="34.32" y="5.0600000000000005" class="c">rstudio</text><text x="44.88" y="5.0600000000000005" class="c">=</text><text x="47.52" y="5.0600000000000005" class="c">TR</text></svg><svg x="9240"><use xlink:href="#a"></use><use xlink:href="#2" y="0"></use><text x="0" y="5.0600000000000005" class="c">&gt;</text><text x="2.64" y="5.0600000000000005" class="c">create_package(pkg_dir,</text><text x="34.32" y="5.0600000000000005" class="c">rstudio</text><text x="44.88" y="5.0600000000000005" class="c">=</text><text x="47.52" y="5.0600000000000005" class="c">TRU</text></svg><svg x="9405"><use xlink:href="#a"></use><use xlink:href="#2" y="0"></use><text x="0" y="5.0600000000000005" class="c">&gt;</text><text x="2.64" y="5.0600000000000005" class="c">create_package(pkg_dir,</text><text x="34.32" y="5.0600000000000005" class="c">rstudio</text><text x="44.88" y="5.0600000000000005" class="c">=</text><text x="47.52" y="5.0600000000000005" class="c">TRUE</text></svg><svg x="9570"><use xlink:href="#a"></use><use xlink:href="#2" y="0"></use><use xlink:href="#6" y="2.8600000000000003"></use></svg><svg x="9735"><use xlink:href="#a"></use><use xlink:href="#2" y="0"></use><use xlink:href="#6" y="2.8600000000000003"></use></svg><svg x="9900"><use xlink:href="#a"></use><use xlink:href="#2" y="0"></use><use xlink:href="#6" y="2.8600000000000003"></use><use xlink:href="#7" y="5.720000000000001"></use></svg><svg x="10065"><use xlink:href="#a"></use><use xlink:href="#2" y="0"></use><use xlink:href="#6" y="2.8600000000000003"></use><use xlink:href="#7" y="5.720000000000001"></use><use xlink:href="#8" y="8.580000000000002"></use></svg><svg x="10230"><use xlink:href="#a"></use><use xlink:href="#2" y="0"></use><use xlink:href="#6" y="2.8600000000000003"></use><use xlink:href="#7" y="5.720000000000001"></use><use xlink:href="#8" y="8.580000000000002"></use><use xlink:href="#9" y="11.440000000000001"></use></svg><svg x="10395"><use xlink:href="#a"></use><use xlink:href="#2" y="0"></use><use xlink:href="#6" y="2.8600000000000003"></use><use xlink:href="#7" y="5.720000000000001"></use><use xlink:href="#8" y="8.580000000000002"></use><use xlink:href="#9" y="11.440000000000001"></use><use xlink:href="#10" y="14.3"></use><use xlink:href="#11" y="17.160000000000004"></use><use xlink:href="#12" y="20.020000000000003"></use><use xlink:href="#13" y="22.880000000000003"></use><use xlink:href="#14" y="25.740000000000002"></use><use xlink:href="#15" y="28.6"></use><use xlink:href="#16" y="31.460000000000004"></use><use xlink:href="#17" y="34.32000000000001"></use><use xlink:href="#18" y="37.18"></use></svg><svg x="10560"><use xlink:href="#a"></use><use xlink:href="#2" y="0"></use><use xlink:href="#6" y="2.8600000000000003"></use><use xlink:href="#7" y="5.720000000000001"></use><use xlink:href="#8" y="8.580000000000002"></use><use xlink:href="#9" y="11.440000000000001"></use><use xlink:href="#10" y="14.3"></use><use xlink:href="#11" y="17.160000000000004"></use><use xlink:href="#12" y="20.020000000000003"></use><use xlink:href="#13" y="22.880000000000003"></use><use xlink:href="#14" y="25.740000000000002"></use><use xlink:href="#15" y="28.6"></use><use xlink:href="#16" y="31.460000000000004"></use><use xlink:href="#17" y="34.32000000000001"></use><use xlink:href="#18" y="37.18"></use><use xlink:href="#19" y="40.040000000000006"></use></svg><svg x="10725"><use xlink:href="#a"></use><use xlink:href="#2" y="0"></use><use xlink:href="#6" y="2.8600000000000003"></use><use xlink:href="#7" y="5.720000000000001"></use><use xlink:href="#8" y="8.580000000000002"></use><use xlink:href="#9" y="11.440000000000001"></use><use xlink:href="#10" y="14.3"></use><use xlink:href="#11" y="17.160000000000004"></use><use xlink:href="#12" y="20.020000000000003"></use><use xlink:href="#13" y="22.880000000000003"></use><use xlink:href="#14" y="25.740000000000002"></use><use xlink:href="#15" y="28.6"></use><use xlink:href="#16" y="31.460000000000004"></use><use xlink:href="#17" y="34.32000000000001"></use><use xlink:href="#18" y="37.18"></use><use xlink:href="#19" y="40.040000000000006"></use><use xlink:href="#20" y="42.9"></use></svg><svg x="10890"><use xlink:href="#a"></use><use xlink:href="#2" y="0"></use><use xlink:href="#6" y="2.8600000000000003"></use><use xlink:href="#7" y="5.720000000000001"></use><use xlink:href="#8" y="8.580000000000002"></use><use xlink:href="#9" y="11.440000000000001"></use><use xlink:href="#10" y="14.3"></use><use xlink:href="#11" y="17.160000000000004"></use><use xlink:href="#12" y="20.020000000000003"></use><use xlink:href="#13" y="22.880000000000003"></use><use xlink:href="#14" y="25.740000000000002"></use><use xlink:href="#15" y="28.6"></use><use xlink:href="#16" y="31.460000000000004"></use><use xlink:href="#17" y="34.32000000000001"></use><use xlink:href="#18" y="37.18"></use><use xlink:href="#19" y="40.040000000000006"></use><use xlink:href="#20" y="42.9"></use><use xlink:href="#21" y="45.760000000000005"></use></svg><svg x="11055"><use xlink:href="#a"></use><use xlink:href="#2" y="0"></use><use xlink:href="#6" y="2.8600000000000003"></use><use xlink:href="#7" y="5.720000000000001"></use><use xlink:href="#8" y="8.580000000000002"></use><use xlink:href="#9" y="11.440000000000001"></use><use xlink:href="#10" y="14.3"></use><use xlink:href="#11" y="17.160000000000004"></use><use xlink:href="#12" y="20.020000000000003"></use><use xlink:href="#13" y="22.880000000000003"></use><use xlink:href="#14" y="25.740000000000002"></use><use xlink:href="#15" y="28.6"></use><use xlink:href="#16" y="31.460000000000004"></use><use xlink:href="#17" y="34.32000000000001"></use><use xlink:href="#18" y="37.18"></use><use xlink:href="#19" y="40.040000000000006"></use><use xlink:href="#20" y="42.9"></use><use xlink:href="#21" y="45.760000000000005"></use><use xlink:href="#22" y="48.62000000000001"></use></svg><svg x="11220"><use xlink:href="#a"></use><use xlink:href="#2" y="0"></use><use xlink:href="#6" y="2.8600000000000003"></use><use xlink:href="#7" y="5.720000000000001"></use><use xlink:href="#8" y="8.580000000000002"></use><use xlink:href="#9" y="11.440000000000001"></use><use xlink:href="#10" y="14.3"></use><use xlink:href="#11" y="17.160000000000004"></use><use xlink:href="#12" y="20.020000000000003"></use><use xlink:href="#13" y="22.880000000000003"></use><use xlink:href="#14" y="25.740000000000002"></use><use xlink:href="#15" y="28.6"></use><use xlink:href="#16" y="31.460000000000004"></use><use xlink:href="#17" y="34.32000000000001"></use><use xlink:href="#18" y="37.18"></use><use xlink:href="#19" y="40.040000000000006"></use><use xlink:href="#20" y="42.9"></use><use xlink:href="#21" y="45.760000000000005"></use><use xlink:href="#22" y="48.62000000000001"></use><use xlink:href="#23" y="51.480000000000004"></use></svg><svg x="11385"><use xlink:href="#a"></use><use xlink:href="#2" y="0"></use><use xlink:href="#6" y="2.8600000000000003"></use><use xlink:href="#7" y="5.720000000000001"></use><use xlink:href="#8" y="8.580000000000002"></use><use xlink:href="#9" y="11.440000000000001"></use><use xlink:href="#10" y="14.3"></use><use xlink:href="#11" y="17.160000000000004"></use><use xlink:href="#12" y="20.020000000000003"></use><use xlink:href="#13" y="22.880000000000003"></use><use xlink:href="#14" y="25.740000000000002"></use><use xlink:href="#15" y="28.6"></use><use xlink:href="#16" y="31.460000000000004"></use><use xlink:href="#17" y="34.32000000000001"></use><use xlink:href="#18" y="37.18"></use><use xlink:href="#19" y="40.040000000000006"></use><use xlink:href="#20" y="42.9"></use><use xlink:href="#21" y="45.760000000000005"></use><use xlink:href="#22" y="48.62000000000001"></use><use xlink:href="#23" y="51.480000000000004"></use><use xlink:href="#1" y="54.34000000000001"></use></svg><svg x="11550"><use xlink:href="#a"></use><use xlink:href="#2" y="0"></use><use xlink:href="#6" y="2.8600000000000003"></use><use xlink:href="#7" y="5.720000000000001"></use><use xlink:href="#8" y="8.580000000000002"></use><use xlink:href="#9" y="11.440000000000001"></use><use xlink:href="#10" y="14.3"></use><use xlink:href="#11" y="17.160000000000004"></use><use xlink:href="#12" y="20.020000000000003"></use><use xlink:href="#13" y="22.880000000000003"></use><use xlink:href="#14" y="25.740000000000002"></use><use xlink:href="#15" y="28.6"></use><use xlink:href="#16" y="31.460000000000004"></use><use xlink:href="#17" y="34.32000000000001"></use><use xlink:href="#18" y="37.18"></use><use xlink:href="#19" y="40.040000000000006"></use><use xlink:href="#20" y="42.9"></use><use xlink:href="#21" y="45.760000000000005"></use><use xlink:href="#22" y="48.62000000000001"></use><use xlink:href="#23" y="51.480000000000004"></use><use xlink:href="#1" y="54.34000000000001"></use></svg></svg></g></g></svg></svg>