<svg xmlns="http://www.w3.org/2000/svg" xmlns:xlink="http://www.w3.org/1999/xlink" width="800" height="686.4000000000001"><rect width="800" height="686.4000000000001" rx="0" ry="0" class="a"></rect><svg height="686.4000000000001" viewBox="0 0 80 68.64000000000001" width="800" xmlns="http://www.w3.org/2000/svg" xmlns:xlink="http://www.w3.org/1999/xlink"><style>.a{fill:rgb(40,45,53)}.b{font-family:'Fira Code',Monaco,Consolas,Menlo,'Bitstream Vera Sans Mono','Powerline Symbols',monospace}.c{fill:rgb(185,192,203);white-space:pre}.d{fill:rgb(185,192,203);font-weight:bold;white-space:pre}.e{fill:rgb(111,119,131);white-space:pre}.f{fill:rgb(111,119,131);font-style:italic;white-space:pre}.g{fill:transparent}.i{animation-duration:10.0471148490906s;animation-iteration-count:infinite;animation-name:h;animation-timing-function:steps(1,end)}@keyframes h{0%{transform:translateX(-0px)}5%{transform:translateX(-80px)}5.6%{transform:translateX(-160px)}6.3%{transform:translateX(-240px)}6.9%{transform:translateX(-320px)}7.6%{transform:translateX(-400px)}8.3%{transform:translateX(-480px)}8.9%{transform:translateX(-560px)}9.4%{transform:translateX(-640px)}9.8%{transform:translateX(-720px)}10.5%{transform:translateX(-800px)}11.2%{transform:translateX(-880px)}11.9%{transform:translateX(-960px)}12.6%{transform:translateX(-1040px)}12.9%{transform:translateX(-1120px)}13.2%{transform:translateX(-1200px)}13.7%{transform:translateX(-1280px)}13.9%{transform:translateX(-1360px)}14.2%{transform:translateX(-1440px)}14.2%{transform:translateX(-1520px)}14.8%{transform:translateX(-1600px)}15.1%{transform:translateX(-1680px)}15.4%{transform:translateX(-1760px)}15.8%{transform:translateX(-1840px)}16.2%{transform:translateX(-1920px)}16.7%{transform:translateX(-2000px)}17.2%{transform:translateX(-2080px)}17.9%{transform:translateX(-2160px)}18.3%{transform:translateX(-2240px)}18.9%{transform:translateX(-2320px)}19.3%{transform:translateX(-2400px)}20%{transform:translateX(-2480px)}20.4%{transform:translateX(-2560px)}20.8%{transform:translateX(-2640px)}21%{transform:translateX(-2720px)}21.3%{transform:translateX(-2800px)}21.8%{transform:translateX(-2880px)}22.2%{transform:translateX(-2960px)}22.6%{transform:translateX(-3040px)}23.4%{transform:translateX(-3120px)}23.8%{transform:translateX(-3200px)}24.3%{transform:translateX(-3280px)}24.8%{transform:translateX(-3360px)}25.2%{transform:translateX(-3440px)}25.8%{transform:translateX(-3520px)}26.3%{transform:translateX(-3600px)}27%{transform:translateX(-3680px)}27.4%{transform:translateX(-3760px)}28%{transform:translateX(-3840px)}28.4%{transform:translateX(-3920px)}29.1%{transform:translateX(-4000px)}29.4%{transform:translateX(-4080px)}29.8%{transform:translateX(-4160px)}30.3%{transform:translateX(-4240px)}30.4%{transform:translateX(-4320px)}31.6%{transform:translateX(-4400px)}31.7%{transform:translateX(-4480px)}41.8%{transform:translateX(-4560px)}42.4%{transform:translateX(-4640px)}43.2%{transform:translateX(-4720px)}43.6%{transform:translateX(-4800px)}44%{transform:translateX(-4880px)}44.6%{transform:translateX(-4960px)}45.2%{transform:translateX(-5040px)}45.5%{transform:translateX(-5120px)}45.8%{transform:translateX(-5200px)}46.1%{transform:translateX(-5280px)}46.4%{transform:translateX(-5360px)}47%{transform:translateX(-5440px)}47.7%{transform:translateX(-5520px)}48.2%{transform:translateX(-5600px)}48.8%{transform:translateX(-5680px)}49.3%{transform:translateX(-5760px)}49.9%{transform:translateX(-5840px)}50%{transform:translateX(-5920px)}50%{transform:translateX(-6000px)}100%{transform:translateX(-6080px)}}</style><g font-family="&#x27;Fira Code&#x27;,Monaco,Consolas,Menlo,&#x27;Bitstream Vera Sans Mono&#x27;,&#x27;Powerline Symbols&#x27;,monospace" font-size="2.2" class="b"><defs><symbol id="1"><text x="0" y="2.2" class="c">library(devtools)</text></symbol><symbol id="2"><text x="0" y="2.2" class="c">&gt;</text></symbol><symbol id="3"><text x="0" y="2.2" class="c">&gt;</text><text x="2.64" y="2.2" class="c">load_all()</text></symbol><symbol id="4"><text x="0" y="2.2" class="c">&gt;</text><text x="2.64" y="2.2" class="c">load_all()</text><text x="17.16" y="2.2" class="c">#</text></symbol><symbol id="5"><text x="0" y="2.2" class="c">&gt;</text><text x="2.64" y="2.2" class="c">load_all()</text><text x="17.16" y="2.2" class="c">#</text><text x="19.8" y="2.2" class="c">Cmd/Ctrl</text></symbol><symbol id="6"><text x="0" y="2.2" class="c">&gt;</text><text x="2.64" y="2.2" class="c">load_all()</text><text x="17.16" y="2.2" class="c">#</text><text x="19.8" y="2.2" class="c">Cmd/Ctrl</text><text x="31.68" y="2.2" class="c">+</text></symbol><symbol id="7"><text x="0" y="2.2" class="c">&gt;</text><text x="2.64" y="2.2" class="c">load_all()</text><text x="17.16" y="2.2" class="c">#</text><text x="19.8" y="2.2" class="c">Cmd/Ctrl</text><text x="31.68" y="2.2" class="c">+</text><text x="34.32" y="2.2" class="c">Shift</text></symbol><symbol id="8"><text x="0" y="2.2" class="c">&gt;</text><text x="2.64" y="2.2" class="c">load_all()</text><text x="17.16" y="2.2" class="c">#</text><text x="19.8" y="2.2" class="c">Cmd/Ctrl</text><text x="31.68" y="2.2" class="c">+</text><text x="34.32" y="2.2" class="c">Shift</text><text x="42.24" y="2.2" class="c">+</text></symbol><symbol id="9"><text x="0" y="2.2" class="c">&gt;</text><text x="2.64" y="2.2" class="c">load_all()</text><text x="17.16" y="2.2" class="c">#</text><text x="19.8" y="2.2" class="c">Cmd/Ctrl</text><text x="31.68" y="2.2" class="c">+</text><text x="34.32" y="2.2" class="c">Shift</text><text x="42.24" y="2.2" class="c">+</text><text x="44.88" y="2.2" class="c">L</text></symbol><symbol id="10"><text x="0" y="2.2" class="d">Loading</text><text x="10.56" y="2.2" class="d">zenartrpkgs</text></symbol><symbol id="11"><text x="0" y="2.2" class="c">&gt;</text><text x="2.64" y="2.2" class="c">summarize_iris()</text></symbol><symbol id="12"><text x="0" y="2.2" class="e">#</text><text x="2.64" y="2.2" class="e">A</text><text x="5.28" y="2.2" class="e">tibble:</text><text x="15.84" y="2.2" class="e">3</text><text x="18.48" y="2.2" class="e">x</text><text x="21.12" y="2.2" class="e">2</text></symbol><symbol id="13"><text x="2.64" y="2.2" class="c">Species</text><text x="17.16" y="2.2" class="c">mean_sepal_length</text></symbol><symbol id="14"><text x="2.64" y="2.2" class="f">&lt;fct&gt;</text><text x="33" y="2.2" class="f">&lt;dbl&gt;</text></symbol><symbol id="15"><text x="0" y="2.2" class="e">1</text><text x="2.64" y="2.2" class="c">setosa</text><text x="34.32" y="2.2" class="c">5.01</text></symbol><symbol id="16"><text x="0" y="2.2" class="e">2</text><text x="2.64" y="2.2" class="c">versicolor</text><text x="34.32" y="2.2" class="c">5.94</text></symbol><symbol id="17"><text x="0" y="2.2" class="e">3</text><text x="2.64" y="2.2" class="c">virginica</text><text x="34.32" y="2.2" class="c">6.59</text></symbol><symbol id="a"><rect height="25" width="80" x="0" y="0" class="g"></rect></symbol></defs><rect height="68.64000000000001" width="80" class="a"></rect><g class="i"><svg x="0" y="0" width="6160"><svg x="0"><use xlink:href="#a"></use></svg><svg x="80"><use xlink:href="#a"></use><text x="0" y="2.2" class="c">l</text></svg><svg x="160"><use xlink:href="#a"></use><text x="0" y="2.2" class="c">li</text></svg><svg x="240"><use xlink:href="#a"></use><text x="0" y="2.2" class="c">lib</text></svg><svg x="320"><use xlink:href="#a"></use><text x="0" y="2.2" class="c">libr</text></svg><svg x="400"><use xlink:href="#a"></use><text x="0" y="2.2" class="c">libra</text></svg><svg x="480"><use xlink:href="#a"></use><text x="0" y="2.2" class="c">librar</text></svg><svg x="560"><use xlink:href="#a"></use><text x="0" y="2.2" class="c">library</text></svg><svg x="640"><use xlink:href="#a"></use><text x="0" y="2.2" class="c">library(</text></svg><svg x="720"><use xlink:href="#a"></use><text x="0" y="2.2" class="c">library(d</text></svg><svg x="800"><use xlink:href="#a"></use><text x="0" y="2.2" class="c">library(de</text></svg><svg x="880"><use xlink:href="#a"></use><text x="0" y="2.2" class="c">library(dev</text></svg><svg x="960"><use xlink:href="#a"></use><text x="0" y="2.2" class="c">library(devt</text></svg><svg x="1040"><use xlink:href="#a"></use><text x="0" y="2.2" class="c">library(devto</text></svg><svg x="1120"><use xlink:href="#a"></use><text x="0" y="2.2" class="c">library(devtoo</text></svg><svg x="1200"><use xlink:href="#a"></use><text x="0" y="2.2" class="c">library(devtool</text></svg><svg x="1280"><use xlink:href="#a"></use><text x="0" y="2.2" class="c">library(devtools</text></svg><svg x="1360"><use xlink:href="#a"></use><use xlink:href="#1" y="0"></use></svg><svg x="1440"><use xlink:href="#a"></use><use xlink:href="#1" y="0"></use></svg><svg x="1520"><use xlink:href="#a"></use><use xlink:href="#1" y="0"></use><use xlink:href="#2" y="2.8600000000000003"></use></svg><svg x="1600"><use xlink:href="#a"></use><use xlink:href="#1" y="0"></use><text x="0" y="5.0600000000000005" class="c">&gt;</text><text x="2.64" y="5.0600000000000005" class="c">l</text></svg><svg x="1680"><use xlink:href="#a"></use><use xlink:href="#1" y="0"></use><text x="0" y="5.0600000000000005" class="c">&gt;</text><text x="2.64" y="5.0600000000000005" class="c">lo</text></svg><svg x="1760"><use xlink:href="#a"></use><use xlink:href="#1" y="0"></use><text x="0" y="5.0600000000000005" class="c">&gt;</text><text x="2.64" y="5.0600000000000005" class="c">loa</text></svg><svg x="1840"><use xlink:href="#a"></use><use xlink:href="#1" y="0"></use><text x="0" y="5.0600000000000005" class="c">&gt;</text><text x="2.64" y="5.0600000000000005" class="c">load</text></svg><svg x="1920"><use xlink:href="#a"></use><use xlink:href="#1" y="0"></use><text x="0" y="5.0600000000000005" class="c">&gt;</text><text x="2.64" y="5.0600000000000005" class="c">load_</text></svg><svg x="2000"><use xlink:href="#a"></use><use xlink:href="#1" y="0"></use><text x="0" y="5.0600000000000005" class="c">&gt;</text><text x="2.64" y="5.0600000000000005" class="c">load_a</text></svg><svg x="2080"><use xlink:href="#a"></use><use xlink:href="#1" y="0"></use><text x="0" y="5.0600000000000005" class="c">&gt;</text><text x="2.64" y="5.0600000000000005" class="c">load_al</text></svg><svg x="2160"><use xlink:href="#a"></use><use xlink:href="#1" y="0"></use><text x="0" y="5.0600000000000005" class="c">&gt;</text><text x="2.64" y="5.0600000000000005" class="c">load_all</text></svg><svg x="2240"><use xlink:href="#a"></use><use xlink:href="#1" y="0"></use><text x="0" y="5.0600000000000005" class="c">&gt;</text><text x="2.64" y="5.0600000000000005" class="c">load_all(</text></svg><svg x="2320"><use xlink:href="#a"></use><use xlink:href="#1" y="0"></use><use xlink:href="#3" y="2.8600000000000003"></use></svg><svg x="2400"><use xlink:href="#a"></use><use xlink:href="#1" y="0"></use><use xlink:href="#3" y="2.8600000000000003"></use></svg><svg x="2480"><use xlink:href="#a"></use><use xlink:href="#1" y="0"></use><use xlink:href="#4" y="2.8600000000000003"></use></svg><svg x="2560"><use xlink:href="#a"></use><use xlink:href="#1" y="0"></use><use xlink:href="#4" y="2.8600000000000003"></use></svg><svg x="2640"><use xlink:href="#a"></use><use xlink:href="#1" y="0"></use><text x="0" y="5.0600000000000005" class="c">&gt;</text><text x="2.64" y="5.0600000000000005" class="c">load_all()</text><text x="17.16" y="5.0600000000000005" class="c">#</text><text x="19.8" y="5.0600000000000005" class="c">C</text></svg><svg x="2720"><use xlink:href="#a"></use><use xlink:href="#1" y="0"></use><text x="0" y="5.0600000000000005" class="c">&gt;</text><text x="2.64" y="5.0600000000000005" class="c">load_all()</text><text x="17.16" y="5.0600000000000005" class="c">#</text><text x="19.8" y="5.0600000000000005" class="c">Cm</text></svg><svg x="2800"><use xlink:href="#a"></use><use xlink:href="#1" y="0"></use><text x="0" y="5.0600000000000005" class="c">&gt;</text><text x="2.64" y="5.0600000000000005" class="c">load_all()</text><text x="17.16" y="5.0600000000000005" class="c">#</text><text x="19.8" y="5.0600000000000005" class="c">Cmd</text></svg><svg x="2880"><use xlink:href="#a"></use><use xlink:href="#1" y="0"></use><text x="0" y="5.0600000000000005" class="c">&gt;</text><text x="2.64" y="5.0600000000000005" class="c">load_all()</text><text x="17.16" y="5.0600000000000005" class="c">#</text><text x="19.8" y="5.0600000000000005" class="c">Cmd/</text></svg><svg x="2960"><use xlink:href="#a"></use><use xlink:href="#1" y="0"></use><text x="0" y="5.0600000000000005" class="c">&gt;</text><text x="2.64" y="5.0600000000000005" class="c">load_all()</text><text x="17.16" y="5.0600000000000005" class="c">#</text><text x="19.8" y="5.0600000000000005" class="c">Cmd/C</text></svg><svg x="3040"><use xlink:href="#a"></use><use xlink:href="#1" y="0"></use><text x="0" y="5.0600000000000005" class="c">&gt;</text><text x="2.64" y="5.0600000000000005" class="c">load_all()</text><text x="17.16" y="5.0600000000000005" class="c">#</text><text x="19.8" y="5.0600000000000005" class="c">Cmd/Ct</text></svg><svg x="3120"><use xlink:href="#a"></use><use xlink:href="#1" y="0"></use><text x="0" y="5.0600000000000005" class="c">&gt;</text><text x="2.64" y="5.0600000000000005" class="c">load_all()</text><text x="17.16" y="5.0600000000000005" class="c">#</text><text x="19.8" y="5.0600000000000005" class="c">Cmd/Ctr</text></svg><svg x="3200"><use xlink:href="#a"></use><use xlink:href="#1" y="0"></use><use xlink:href="#5" y="2.8600000000000003"></use></svg><svg x="3280"><use xlink:href="#a"></use><use xlink:href="#1" y="0"></use><use xlink:href="#5" y="2.8600000000000003"></use></svg><svg x="3360"><use xlink:href="#a"></use><use xlink:href="#1" y="0"></use><use xlink:href="#6" y="2.8600000000000003"></use></svg><svg x="3440"><use xlink:href="#a"></use><use xlink:href="#1" y="0"></use><use xlink:href="#6" y="2.8600000000000003"></use></svg><svg x="3520"><use xlink:href="#a"></use><use xlink:href="#1" y="0"></use><text x="0" y="5.0600000000000005" class="c">&gt;</text><text x="2.64" y="5.0600000000000005" class="c">load_all()</text><text x="17.16" y="5.0600000000000005" class="c">#</text><text x="19.8" y="5.0600000000000005" class="c">Cmd/Ctrl</text><text x="31.68" y="5.0600000000000005" class="c">+</text><text x="34.32" y="5.0600000000000005" class="c">S</text></svg><svg x="3600"><use xlink:href="#a"></use><use xlink:href="#1" y="0"></use><text x="0" y="5.0600000000000005" class="c">&gt;</text><text x="2.64" y="5.0600000000000005" class="c">load_all()</text><text x="17.16" y="5.0600000000000005" class="c">#</text><text x="19.8" y="5.0600000000000005" class="c">Cmd/Ctrl</text><text x="31.68" y="5.0600000000000005" class="c">+</text><text x="34.32" y="5.0600000000000005" class="c">Sh</text></svg><svg x="3680"><use xlink:href="#a"></use><use xlink:href="#1" y="0"></use><text x="0" y="5.0600000000000005" class="c">&gt;</text><text x="2.64" y="5.0600000000000005" class="c">load_all()</text><text x="17.16" y="5.0600000000000005" class="c">#</text><text x="19.8" y="5.0600000000000005" class="c">Cmd/Ctrl</text><text x="31.68" y="5.0600000000000005" class="c">+</text><text x="34.32" y="5.0600000000000005" class="c">Shi</text></svg><svg x="3760"><use xlink:href="#a"></use><use xlink:href="#1" y="0"></use><text x="0" y="5.0600000000000005" class="c">&gt;</text><text x="2.64" y="5.0600000000000005" class="c">load_all()</text><text x="17.16" y="5.0600000000000005" class="c">#</text><text x="19.8" y="5.0600000000000005" class="c">Cmd/Ctrl</text><text x="31.68" y="5.0600000000000005" class="c">+</text><text x="34.32" y="5.0600000000000005" class="c">Shif</text></svg><svg x="3840"><use xlink:href="#a"></use><use xlink:href="#1" y="0"></use><use xlink:href="#7" y="2.8600000000000003"></use></svg><svg x="3920"><use xlink:href="#a"></use><use xlink:href="#1" y="0"></use><use xlink:href="#7" y="2.8600000000000003"></use></svg><svg x="4000"><use xlink:href="#a"></use><use xlink:href="#1" y="0"></use><use xlink:href="#8" y="2.8600000000000003"></use></svg><svg x="4080"><use xlink:href="#a"></use><use xlink:href="#1" y="0"></use><use xlink:href="#8" y="2.8600000000000003"></use></svg><svg x="4160"><use xlink:href="#a"></use><use xlink:href="#1" y="0"></use><use xlink:href="#9" y="2.8600000000000003"></use></svg><svg x="4240"><use xlink:href="#a"></use><use xlink:href="#1" y="0"></use><use xlink:href="#9" y="2.8600000000000003"></use></svg><svg x="4320"><use xlink:href="#a"></use><use xlink:href="#1" y="0"></use><use xlink:href="#9" y="2.8600000000000003"></use><use xlink:href="#10" y="5.720000000000001"></use></svg><svg x="4400"><use xlink:href="#a"></use><use xlink:href="#1" y="0"></use><use xlink:href="#9" y="2.8600000000000003"></use><use xlink:href="#10" y="5.720000000000001"></use><use xlink:href="#2" y="8.580000000000002"></use></svg><svg x="4480"><use xlink:href="#a"></use><use xlink:href="#1" y="0"></use><use xlink:href="#9" y="2.8600000000000003"></use><use xlink:href="#10" y="5.720000000000001"></use><use xlink:href="#2" y="8.580000000000002"></use><use xlink:href="#2" y="11.440000000000001"></use></svg><svg x="4560"><use xlink:href="#a"></use><use xlink:href="#1" y="0"></use><use xlink:href="#9" y="2.8600000000000003"></use><use xlink:href="#10" y="5.720000000000001"></use><use xlink:href="#2" y="8.580000000000002"></use><text x="0" y="13.64" class="c">&gt;</text><text x="2.64" y="13.64" class="c">s</text></svg><svg x="4640"><use xlink:href="#a"></use><use xlink:href="#1" y="0"></use><use xlink:href="#9" y="2.8600000000000003"></use><use xlink:href="#10" y="5.720000000000001"></use><use xlink:href="#2" y="8.580000000000002"></use><text x="0" y="13.64" class="c">&gt;</text><text x="2.64" y="13.64" class="c">su</text></svg><svg x="4720"><use xlink:href="#a"></use><use xlink:href="#1" y="0"></use><use xlink:href="#9" y="2.8600000000000003"></use><use xlink:href="#10" y="5.720000000000001"></use><use xlink:href="#2" y="8.580000000000002"></use><text x="0" y="13.64" class="c">&gt;</text><text x="2.64" y="13.64" class="c">sum</text></svg><svg x="4800"><use xlink:href="#a"></use><use xlink:href="#1" y="0"></use><use xlink:href="#9" y="2.8600000000000003"></use><use xlink:href="#10" y="5.720000000000001"></use><use xlink:href="#2" y="8.580000000000002"></use><text x="0" y="13.64" class="c">&gt;</text><text x="2.64" y="13.64" class="c">summ</text></svg><svg x="4880"><use xlink:href="#a"></use><use xlink:href="#1" y="0"></use><use xlink:href="#9" y="2.8600000000000003"></use><use xlink:href="#10" y="5.720000000000001"></use><use xlink:href="#2" y="8.580000000000002"></use><text x="0" y="13.64" class="c">&gt;</text><text x="2.64" y="13.64" class="c">summa</text></svg><svg x="4960"><use xlink:href="#a"></use><use xlink:href="#1" y="0"></use><use xlink:href="#9" y="2.8600000000000003"></use><use xlink:href="#10" y="5.720000000000001"></use><use xlink:href="#2" y="8.580000000000002"></use><text x="0" y="13.64" class="c">&gt;</text><text x="2.64" y="13.64" class="c">summar</text></svg><svg x="5040"><use xlink:href="#a"></use><use xlink:href="#1" y="0"></use><use xlink:href="#9" y="2.8600000000000003"></use><use xlink:href="#10" y="5.720000000000001"></use><use xlink:href="#2" y="8.580000000000002"></use><text x="0" y="13.64" class="c">&gt;</text><text x="2.64" y="13.64" class="c">summari</text></svg><svg x="5120"><use xlink:href="#a"></use><use xlink:href="#1" y="0"></use><use xlink:href="#9" y="2.8600000000000003"></use><use xlink:href="#10" y="5.720000000000001"></use><use xlink:href="#2" y="8.580000000000002"></use><text x="0" y="13.64" class="c">&gt;</text><text x="2.64" y="13.64" class="c">summariz</text></svg><svg x="5200"><use xlink:href="#a"></use><use xlink:href="#1" y="0"></use><use xlink:href="#9" y="2.8600000000000003"></use><use xlink:href="#10" y="5.720000000000001"></use><use xlink:href="#2" y="8.580000000000002"></use><text x="0" y="13.64" class="c">&gt;</text><text x="2.64" y="13.64" class="c">summarize</text></svg><svg x="5280"><use xlink:href="#a"></use><use xlink:href="#1" y="0"></use><use xlink:href="#9" y="2.8600000000000003"></use><use xlink:href="#10" y="5.720000000000001"></use><use xlink:href="#2" y="8.580000000000002"></use><text x="0" y="13.64" class="c">&gt;</text><text x="2.64" y="13.64" class="c">summarize_</text></svg><svg x="5360"><use xlink:href="#a"></use><use xlink:href="#1" y="0"></use><use xlink:href="#9" y="2.8600000000000003"></use><use xlink:href="#10" y="5.720000000000001"></use><use xlink:href="#2" y="8.580000000000002"></use><text x="0" y="13.64" class="c">&gt;</text><text x="2.64" y="13.64" class="c">summarize_i</text></svg><svg x="5440"><use xlink:href="#a"></use><use xlink:href="#1" y="0"></use><use xlink:href="#9" y="2.8600000000000003"></use><use xlink:href="#10" y="5.720000000000001"></use><use xlink:href="#2" y="8.580000000000002"></use><text x="0" y="13.64" class="c">&gt;</text><text x="2.64" y="13.64" class="c">summarize_ir</text></svg><svg x="5520"><use xlink:href="#a"></use><use xlink:href="#1" y="0"></use><use xlink:href="#9" y="2.8600000000000003"></use><use xlink:href="#10" y="5.720000000000001"></use><use xlink:href="#2" y="8.580000000000002"></use><text x="0" y="13.64" class="c">&gt;</text><text x="2.64" y="13.64" class="c">summarize_iri</text></svg><svg x="5600"><use xlink:href="#a"></use><use xlink:href="#1" y="0"></use><use xlink:href="#9" y="2.8600000000000003"></use><use xlink:href="#10" y="5.720000000000001"></use><use xlink:href="#2" y="8.580000000000002"></use><text x="0" y="13.64" class="c">&gt;</text><text x="2.64" y="13.64" class="c">summarize_iris</text></svg><svg x="5680"><use xlink:href="#a"></use><use xlink:href="#1" y="0"></use><use xlink:href="#9" y="2.8600000000000003"></use><use xlink:href="#10" y="5.720000000000001"></use><use xlink:href="#2" y="8.580000000000002"></use><text x="0" y="13.64" class="c">&gt;</text><text x="2.64" y="13.64" class="c">summarize_iris(</text></svg><svg x="5760"><use xlink:href="#a"></use><use xlink:href="#1" y="0"></use><use xlink:href="#9" y="2.8600000000000003"></use><use xlink:href="#10" y="5.720000000000001"></use><use xlink:href="#2" y="8.580000000000002"></use><use xlink:href="#11" y="11.440000000000001"></use></svg><svg x="5840"><use xlink:href="#a"></use><use xlink:href="#1" y="0"></use><use xlink:href="#9" y="2.8600000000000003"></use><use xlink:href="#10" y="5.720000000000001"></use><use xlink:href="#2" y="8.580000000000002"></use><use xlink:href="#11" y="11.440000000000001"></use></svg><svg x="5920"><use xlink:href="#a"></use><use xlink:href="#1" y="0"></use><use xlink:href="#9" y="2.8600000000000003"></use><use xlink:href="#10" y="5.720000000000001"></use><use xlink:href="#2" y="8.580000000000002"></use><use xlink:href="#11" y="11.440000000000001"></use><use xlink:href="#12" y="14.3"></use><use xlink:href="#13" y="17.160000000000004"></use><use xlink:href="#14" y="20.020000000000003"></use><use xlink:href="#15" y="22.880000000000003"></use><use xlink:href="#16" y="25.740000000000002"></use><use xlink:href="#17" y="28.6"></use></svg><svg x="6000"><use xlink:href="#a"></use><use xlink:href="#1" y="0"></use><use xlink:href="#9" y="2.8600000000000003"></use><use xlink:href="#10" y="5.720000000000001"></use><use xlink:href="#2" y="8.580000000000002"></use><use xlink:href="#11" y="11.440000000000001"></use><use xlink:href="#12" y="14.3"></use><use xlink:href="#13" y="17.160000000000004"></use><use xlink:href="#14" y="20.020000000000003"></use><use xlink:href="#15" y="22.880000000000003"></use><use xlink:href="#16" y="25.740000000000002"></use><use xlink:href="#17" y="28.6"></use><use xlink:href="#2" y="31.460000000000004"></use></svg><svg x="6080"><use xlink:href="#a"></use><use xlink:href="#1" y="0"></use><use xlink:href="#9" y="2.8600000000000003"></use><use xlink:href="#10" y="5.720000000000001"></use><use xlink:href="#2" y="8.580000000000002"></use><use xlink:href="#11" y="11.440000000000001"></use><use xlink:href="#12" y="14.3"></use><use xlink:href="#13" y="17.160000000000004"></use><use xlink:href="#14" y="20.020000000000003"></use><use xlink:href="#15" y="22.880000000000003"></use><use xlink:href="#16" y="25.740000000000002"></use><use xlink:href="#17" y="28.6"></use><use xlink:href="#2" y="31.460000000000004"></use></svg></svg></g></g></svg></svg>