<svg xmlns="http://www.w3.org/2000/svg" xmlns:xlink="http://www.w3.org/1999/xlink" width="800" height="686.4000000000001"><rect width="800" height="686.4000000000001" rx="0" ry="0" class="a"></rect><svg height="686.4000000000001" viewBox="0 0 80 68.64000000000001" width="800" xmlns="http://www.w3.org/2000/svg" xmlns:xlink="http://www.w3.org/1999/xlink"><style>.a{fill:rgb(40,45,53)}.b{font-family:'Fira Code',Monaco,Consolas,Menlo,'Bitstream Vera Sans Mono','Powerline Symbols',monospace}.c{fill:rgb(185,192,203);white-space:pre}.d{fill:rgb(168,204,140);white-space:pre}.e{fill:rgb(113,190,242);white-space:pre}.f{fill:rgb(232,131,136);white-space:pre}.g{fill:rgb(111,119,131);white-space:pre}.h{fill:transparent}.j{animation-duration:6.65261697769165s;animation-iteration-count:infinite;animation-name:i;animation-timing-function:steps(1,end)}@keyframes i{0%{transform:translateX(-0px)}0%{transform:translateX(-80px)}7.8%{transform:translateX(-160px)}8.6%{transform:translateX(-240px)}9.6%{transform:translateX(-320px)}10.4%{transform:translateX(-400px)}11.1%{transform:translateX(-480px)}11.8%{transform:translateX(-560px)}12.2%{transform:translateX(-640px)}13.4%{transform:translateX(-720px)}13.9%{transform:translateX(-800px)}14.7%{transform:translateX(-880px)}15.2%{transform:translateX(-960px)}15.9%{transform:translateX(-1040px)}16.7%{transform:translateX(-1120px)}17.5%{transform:translateX(-1200px)}18.5%{transform:translateX(-1280px)}19.1%{transform:translateX(-1360px)}19.7%{transform:translateX(-1440px)}20.6%{transform:translateX(-1520px)}21%{transform:translateX(-1600px)}22.1%{transform:translateX(-1680px)}23%{transform:translateX(-1760px)}23.9%{transform:translateX(-1840px)}24%{transform:translateX(-1920px)}24.1%{transform:translateX(-2000px)}24.3%{transform:translateX(-2080px)}24.3%{transform:translateX(-2160px)}24.3%{transform:translateX(-2240px)}24.3%{transform:translateX(-2320px)}100%{transform:translateX(-2400px)}}</style><g font-family="&#x27;Fira Code&#x27;,Monaco,Consolas,Menlo,&#x27;Bitstream Vera Sans Mono&#x27;,&#x27;Powerline Symbols&#x27;,monospace" font-size="2.2" class="b"><defs><symbol id="1"><text x="0" y="2.2" class="c">&gt;</text></symbol><symbol id="2"><text x="0" y="2.2" class="c">&gt;</text><text x="2.64" y="2.2" class="c">use_data_raw(&quot;iris2&quot;)</text></symbol><symbol id="3"><text x="0" y="2.2" class="d">✔</text><text x="2.64" y="2.2" class="c">Creating</text><text x="14.520000000000001" y="2.2" class="e">&#x27;data-raw/&#x27;</text></symbol><symbol id="4"><text x="0" y="2.2" class="d">✔</text><text x="2.64" y="2.2" class="c">Adding</text><text x="11.88" y="2.2" class="e">&#x27;^data-raw$&#x27;</text><text x="29.040000000000003" y="2.2" class="c">to</text><text x="33" y="2.2" class="e">&#x27;.Rbuildignore&#x27;</text></symbol><symbol id="5"><text x="0" y="2.2" class="d">✔</text><text x="2.64" y="2.2" class="c">Writing</text><text x="13.2" y="2.2" class="e">&#x27;data-raw/iris2.R&#x27;</text></symbol><symbol id="6"><text x="0" y="2.2" class="f">●</text><text x="2.64" y="2.2" class="c">Finish</text><text x="11.88" y="2.2" class="c">the</text><text x="17.16" y="2.2" class="c">data</text><text x="23.76" y="2.2" class="c">preparation</text><text x="39.6" y="2.2" class="c">script</text><text x="48.84" y="2.2" class="c">in</text><text x="52.8" y="2.2" class="e">&#x27;data-raw/iris2.R&#x27;</text></symbol><symbol id="7"><text x="0" y="2.2" class="f">●</text><text x="2.64" y="2.2" class="c">Use</text><text x="7.92" y="2.2" class="g">`usethis::use_data()`</text><text x="36.96" y="2.2" class="c">to</text><text x="40.92" y="2.2" class="c">add</text><text x="46.199999999999996" y="2.2" class="c">prepared</text><text x="58.080000000000005" y="2.2" class="c">data</text><text x="64.68" y="2.2" class="c">to</text><text x="68.64" y="2.2" class="c">package</text></symbol><symbol id="a"><rect height="25" width="80" x="0" y="0" class="h"></rect></symbol></defs><rect height="68.64000000000001" width="80" class="a"></rect><g class="j"><svg x="0" y="0" width="2480"><svg x="0"><use xlink:href="#a"></use></svg><svg x="80"><use xlink:href="#a"></use><use xlink:href="#1" y="0"></use></svg><svg x="160"><use xlink:href="#a"></use><text x="0" y="2.2" class="c">&gt;</text><text x="2.64" y="2.2" class="c">u</text></svg><svg x="240"><use xlink:href="#a"></use><text x="0" y="2.2" class="c">&gt;</text><text x="2.64" y="2.2" class="c">us</text></svg><svg x="320"><use xlink:href="#a"></use><text x="0" y="2.2" class="c">&gt;</text><text x="2.64" y="2.2" class="c">use</text></svg><svg x="400"><use xlink:href="#a"></use><text x="0" y="2.2" class="c">&gt;</text><text x="2.64" y="2.2" class="c">use_</text></svg><svg x="480"><use xlink:href="#a"></use><text x="0" y="2.2" class="c">&gt;</text><text x="2.64" y="2.2" class="c">use_d</text></svg><svg x="560"><use xlink:href="#a"></use><text x="0" y="2.2" class="c">&gt;</text><text x="2.64" y="2.2" class="c">use_da</text></svg><svg x="640"><use xlink:href="#a"></use><text x="0" y="2.2" class="c">&gt;</text><text x="2.64" y="2.2" class="c">use_dat</text></svg><svg x="720"><use xlink:href="#a"></use><text x="0" y="2.2" class="c">&gt;</text><text x="2.64" y="2.2" class="c">use_data</text></svg><svg x="800"><use xlink:href="#a"></use><text x="0" y="2.2" class="c">&gt;</text><text x="2.64" y="2.2" class="c">use_data_</text></svg><svg x="880"><use xlink:href="#a"></use><text x="0" y="2.2" class="c">&gt;</text><text x="2.64" y="2.2" class="c">use_data_r</text></svg><svg x="960"><use xlink:href="#a"></use><text x="0" y="2.2" class="c">&gt;</text><text x="2.64" y="2.2" class="c">use_data_ra</text></svg><svg x="1040"><use xlink:href="#a"></use><text x="0" y="2.2" class="c">&gt;</text><text x="2.64" y="2.2" class="c">use_data_raw</text></svg><svg x="1120"><use xlink:href="#a"></use><text x="0" y="2.2" class="c">&gt;</text><text x="2.64" y="2.2" class="c">use_data_raw(</text></svg><svg x="1200"><use xlink:href="#a"></use><text x="0" y="2.2" class="c">&gt;</text><text x="2.64" y="2.2" class="c">use_data_raw(&quot;</text></svg><svg x="1280"><use xlink:href="#a"></use><text x="0" y="2.2" class="c">&gt;</text><text x="2.64" y="2.2" class="c">use_data_raw(&quot;i</text></svg><svg x="1360"><use xlink:href="#a"></use><text x="0" y="2.2" class="c">&gt;</text><text x="2.64" y="2.2" class="c">use_data_raw(&quot;ir</text></svg><svg x="1440"><use xlink:href="#a"></use><text x="0" y="2.2" class="c">&gt;</text><text x="2.64" y="2.2" class="c">use_data_raw(&quot;iri</text></svg><svg x="1520"><use xlink:href="#a"></use><text x="0" y="2.2" class="c">&gt;</text><text x="2.64" y="2.2" class="c">use_data_raw(&quot;iris</text></svg><svg x="1600"><use xlink:href="#a"></use><text x="0" y="2.2" class="c">&gt;</text><text x="2.64" y="2.2" class="c">use_data_raw(&quot;iris2</text></svg><svg x="1680"><use xlink:href="#a"></use><text x="0" y="2.2" class="c">&gt;</text><text x="2.64" y="2.2" class="c">use_data_raw(&quot;iris2&quot;</text></svg><svg x="1760"><use xlink:href="#a"></use><use xlink:href="#2" y="0"></use></svg><svg x="1840"><use xlink:href="#a"></use><use xlink:href="#2" y="0"></use></svg><svg x="1920"><use xlink:href="#a"></use><use xlink:href="#2" y="0"></use><use xlink:href="#3" y="2.8600000000000003"></use></svg><svg x="2000"><use xlink:href="#a"></use><use xlink:href="#2" y="0"></use><use xlink:href="#3" y="2.8600000000000003"></use><use xlink:href="#4" y="5.720000000000001"></use></svg><svg x="2080"><use xlink:href="#a"></use><use xlink:href="#2" y="0"></use><use xlink:href="#3" y="2.8600000000000003"></use><use xlink:href="#4" y="5.720000000000001"></use><use xlink:href="#5" y="8.580000000000002"></use></svg><svg x="2160"><use xlink:href="#a"></use><use xlink:href="#2" y="0"></use><use xlink:href="#3" y="2.8600000000000003"></use><use xlink:href="#4" y="5.720000000000001"></use><use xlink:href="#5" y="8.580000000000002"></use><use xlink:href="#6" y="11.440000000000001"></use></svg><svg x="2240"><use xlink:href="#a"></use><use xlink:href="#2" y="0"></use><use xlink:href="#3" y="2.8600000000000003"></use><use xlink:href="#4" y="5.720000000000001"></use><use xlink:href="#5" y="8.580000000000002"></use><use xlink:href="#6" y="11.440000000000001"></use><use xlink:href="#7" y="14.3"></use></svg><svg x="2320"><use xlink:href="#a"></use><use xlink:href="#2" y="0"></use><use xlink:href="#3" y="2.8600000000000003"></use><use xlink:href="#4" y="5.720000000000001"></use><use xlink:href="#5" y="8.580000000000002"></use><use xlink:href="#6" y="11.440000000000001"></use><use xlink:href="#7" y="14.3"></use><use xlink:href="#1" y="17.160000000000004"></use></svg><svg x="2400"><use xlink:href="#a"></use><use xlink:href="#2" y="0"></use><use xlink:href="#3" y="2.8600000000000003"></use><use xlink:href="#4" y="5.720000000000001"></use><use xlink:href="#5" y="8.580000000000002"></use><use xlink:href="#6" y="11.440000000000001"></use><use xlink:href="#7" y="14.3"></use><use xlink:href="#1" y="17.160000000000004"></use></svg></svg></g></g></svg></svg>